G04 Layer: TopSilkscreenLayer*
G04 EasyEDA Pro v3.2.148, 2026-07-02 00:58:48*
G04 Gerber Generator version 0.3*
G04 Scale: 100 percent, Rotated: No, Reflected: No*
G04 Dimensions in millimeters*
G04 Leading zeros omitted, absolute positions, 4 integers and 5 decimals*
G04 Generated by one-click*
G04 Object Configs: Pad,Via,Track,Text,Image,Dimension,BoardOutline,BoardCutout,CopperFilled,SolidRegion,FPCStiffener,Line,PlaneZone,ComponentProperty,ComponentSilkscreen,TearDrop*
G04 Layer Configs: 1,2,3,4,5,6,7,8,9,10,11,13,14,56*
G04 Copper Areas: 0*
%FSLAX45Y45*%
%MOMM*%
%ADD10C,0.1524*%
%ADD11C,0.203*%
%ADD12C,0.254*%
%ADD13C,0.5402*%
G75*


G04 Text Start*
G54D10*
G01X3598573Y1251346D02*
G01X3549043Y1251346D01*
G01X3539899Y1254394D01*
G01X3536597Y1257442D01*
G01X3533549Y1263792D01*
G01X3533549Y1269888D01*
G01X3536597Y1276238D01*
G01X3539899Y1279286D01*
G01X3549043Y1282334D01*
G01X3555393Y1282334D01*
G01X3586127Y1221120D02*
G01X3589429Y1215024D01*
G01X3598573Y1205880D01*
G01X3533549Y1205880D01*
G01X2263043Y726694D02*
G01X2216561Y726694D01*
G01X2207417Y723646D01*
G01X2201067Y717296D01*
G01X2198019Y708152D01*
G01X2198019Y701802D01*
G01X2201067Y692658D01*
G01X2207417Y686562D01*
G01X2216561Y683260D01*
G01X2263043Y683260D01*
G01X2250597Y653034D02*
G01X2253899Y646938D01*
G01X2263043Y637794D01*
G01X2198019Y637794D01*
G54D11*
G01X1064260Y149098D02*
G01X1064260Y64008D01*
G01X1064260Y149098D02*
G01X1116838Y149098D01*
G01X1064260Y108458D02*
G01X1096772Y108458D01*
G01X1064260Y64008D02*
G01X1116838Y64008D01*
G01X1156716Y149098D02*
G01X1156716Y64008D01*
G01X1156716Y149098D02*
G01X1188974Y64008D01*
G01X1221486Y149098D02*
G01X1188974Y64008D01*
G01X1221486Y149098D02*
G01X1221486Y64008D01*
G01X1261364Y149098D02*
G01X1261364Y64008D01*
G01X1261364Y149098D02*
G01X1313942Y149098D01*
G01X1261364Y108458D02*
G01X1293622Y108458D01*
G01X1488948Y108458D02*
G01X1485138Y116586D01*
G01X1472946Y120650D01*
G01X1460754Y120650D01*
G01X1448562Y116586D01*
G01X1444498Y108458D01*
G01X1448562Y100330D01*
G01X1456690Y96266D01*
G01X1477010Y92202D01*
G01X1485138Y88138D01*
G01X1488948Y80010D01*
G01X1488948Y76200D01*
G01X1485138Y68072D01*
G01X1472946Y64008D01*
G01X1460754Y64008D01*
G01X1448562Y68072D01*
G01X1444498Y76200D01*
G01X1528826Y96266D02*
G01X1577340Y96266D01*
G01X1577340Y104394D01*
G01X1573276Y112522D01*
G01X1569212Y116586D01*
G01X1561084Y120650D01*
G01X1548892Y120650D01*
G01X1540764Y116586D01*
G01X1532636Y108458D01*
G01X1528826Y96266D01*
G01X1528826Y88138D01*
G01X1532636Y76200D01*
G01X1540764Y68072D01*
G01X1548892Y64008D01*
G01X1561084Y64008D01*
G01X1569212Y68072D01*
G01X1577340Y76200D01*
G01X1617218Y120650D02*
G01X1617218Y64008D01*
G01X1617218Y104394D02*
G01X1629156Y116586D01*
G01X1637284Y120650D01*
G01X1649476Y120650D01*
G01X1657604Y116586D01*
G01X1661668Y104394D01*
G01X1661668Y64008D01*
G01X1745996Y108458D02*
G01X1741932Y116586D01*
G01X1729740Y120650D01*
G01X1717548Y120650D01*
G01X1705356Y116586D01*
G01X1701546Y108458D01*
G01X1705356Y100330D01*
G01X1713484Y96266D01*
G01X1733804Y92202D01*
G01X1741932Y88138D01*
G01X1745996Y80010D01*
G01X1745996Y76200D01*
G01X1741932Y68072D01*
G01X1729740Y64008D01*
G01X1717548Y64008D01*
G01X1705356Y68072D01*
G01X1701546Y76200D01*
G01X1805940Y120650D02*
G01X1797812Y116586D01*
G01X1789684Y108458D01*
G01X1785874Y96266D01*
G01X1785874Y88138D01*
G01X1789684Y76200D01*
G01X1797812Y68072D01*
G01X1805940Y64008D01*
G01X1818132Y64008D01*
G01X1826260Y68072D01*
G01X1834388Y76200D01*
G01X1838452Y88138D01*
G01X1838452Y96266D01*
G01X1834388Y108458D01*
G01X1826260Y116586D01*
G01X1818132Y120650D01*
G01X1805940Y120650D01*
G01X1878330Y120650D02*
G01X1878330Y64008D01*
G01X1878330Y96266D02*
G01X1882140Y108458D01*
G01X1890268Y116586D01*
G01X1898396Y120650D01*
G01X1910588Y120650D01*
G01X2041144Y120650D02*
G01X2065528Y64008D01*
G01X2089658Y120650D02*
G01X2065528Y64008D01*
G01X2129536Y132842D02*
G01X2137410Y136906D01*
G01X2149602Y149098D01*
G01X2149602Y64008D01*
G01X2197354Y80010D02*
G01X2193290Y76200D01*
G01X2189480Y80010D01*
G01X2193290Y84074D01*
G01X2197354Y80010D01*
G01X2197354Y72136D01*
G01X2189480Y64008D01*
G01X2327910Y149098D02*
G01X2327910Y64008D01*
G01X2327910Y64008D02*
G01X2376424Y64008D01*
G01X2416302Y149098D02*
G01X2416302Y64008D01*
G01X2416302Y149098D02*
G01X2448560Y64008D01*
G01X2481072Y149098D02*
G01X2448560Y64008D01*
G01X2481072Y149098D02*
G01X2481072Y64008D01*
G01X2528824Y149098D02*
G01X2573528Y149098D01*
G01X2549144Y116586D01*
G01X2561336Y116586D01*
G01X2569464Y112522D01*
G01X2573528Y108458D01*
G01X2577592Y96266D01*
G01X2577592Y88138D01*
G01X2573528Y76200D01*
G01X2565400Y68072D01*
G01X2553208Y64008D01*
G01X2541016Y64008D01*
G01X2528824Y68072D01*
G01X2524760Y72136D01*
G01X2520950Y80010D01*
G01X2665984Y149098D02*
G01X2625344Y149098D01*
G01X2621280Y112522D01*
G01X2625344Y116586D01*
G01X2637536Y120650D01*
G01X2649728Y120650D01*
G01X2661920Y116586D01*
G01X2670048Y108458D01*
G01X2674112Y96266D01*
G01X2674112Y88138D01*
G01X2670048Y76200D01*
G01X2661920Y68072D01*
G01X2649728Y64008D01*
G01X2637536Y64008D01*
G01X2625344Y68072D01*
G01X2621280Y72136D01*
G01X2617470Y80010D01*
G01X2734056Y149098D02*
G01X2721864Y145034D01*
G01X2717800Y136906D01*
G01X2717800Y128778D01*
G01X2721864Y120650D01*
G01X2729992Y116586D01*
G01X2746248Y112522D01*
G01X2758440Y108458D01*
G01X2766568Y100330D01*
G01X2770632Y92202D01*
G01X2770632Y80010D01*
G01X2766568Y72136D01*
G01X2762504Y68072D01*
G01X2750312Y64008D01*
G01X2734056Y64008D01*
G01X2721864Y68072D01*
G01X2717800Y72136D01*
G01X2713990Y80010D01*
G01X2713990Y92202D01*
G01X2717800Y100330D01*
G01X2725928Y108458D01*
G01X2738120Y112522D01*
G01X2754376Y116586D01*
G01X2762504Y120650D01*
G01X2766568Y128778D01*
G01X2766568Y136906D01*
G01X2762504Y145034D01*
G01X2750312Y149098D01*
G01X2734056Y149098D01*
G01X1305560Y1338834D02*
G01X1340358Y1295146D01*
G01X1340358Y1247140D01*
G01X1375410Y1338834D02*
G01X1340358Y1295146D01*
G01X1416558Y1338834D02*
G01X1451610Y1247140D01*
G01X1486408Y1338834D02*
G01X1451610Y1247140D01*
G01X1527556Y1338834D02*
G01X1527556Y1247140D01*
G01X1527556Y1338834D02*
G01X1584452Y1338834D01*
G01X1527556Y1295146D02*
G01X1562608Y1295146D01*
G01X1727962Y1316990D02*
G01X1727962Y1321308D01*
G01X1732280Y1330198D01*
G01X1736598Y1334516D01*
G01X1745234Y1338834D01*
G01X1762760Y1338834D01*
G01X1771396Y1334516D01*
G01X1775968Y1330198D01*
G01X1780286Y1321308D01*
G01X1780286Y1312672D01*
G01X1775968Y1304036D01*
G01X1767078Y1290828D01*
G01X1723390Y1247140D01*
G01X1784604Y1247140D01*
G01X1852168Y1338834D02*
G01X1838960Y1334516D01*
G01X1830324Y1321308D01*
G01X1825752Y1299718D01*
G01X1825752Y1286510D01*
G01X1830324Y1264666D01*
G01X1838960Y1251458D01*
G01X1852168Y1247140D01*
G01X1860804Y1247140D01*
G01X1873758Y1251458D01*
G01X1882648Y1264666D01*
G01X1886966Y1286510D01*
G01X1886966Y1299718D01*
G01X1882648Y1321308D01*
G01X1873758Y1334516D01*
G01X1860804Y1338834D01*
G01X1852168Y1338834D01*
G01X1932686Y1316990D02*
G01X1932686Y1321308D01*
G01X1937004Y1330198D01*
G01X1941322Y1334516D01*
G01X1949958Y1338834D01*
G01X1967484Y1338834D01*
G01X1976120Y1334516D01*
G01X1980692Y1330198D01*
G01X1985010Y1321308D01*
G01X1985010Y1312672D01*
G01X1980692Y1304036D01*
G01X1971802Y1290828D01*
G01X1928114Y1247140D01*
G01X1989328Y1247140D01*
G01X2083054Y1325880D02*
G01X2078482Y1334516D01*
G01X2065528Y1338834D01*
G01X2056892Y1338834D01*
G01X2043684Y1334516D01*
G01X2035048Y1321308D01*
G01X2030476Y1299718D01*
G01X2030476Y1277874D01*
G01X2035048Y1260348D01*
G01X2043684Y1251458D01*
G01X2056892Y1247140D01*
G01X2061210Y1247140D01*
G01X2074164Y1251458D01*
G01X2083054Y1260348D01*
G01X2087372Y1273302D01*
G01X2087372Y1277874D01*
G01X2083054Y1290828D01*
G01X2074164Y1299718D01*
G01X2061210Y1304036D01*
G01X2056892Y1304036D01*
G01X2043684Y1299718D01*
G01X2035048Y1290828D01*
G01X2030476Y1277874D01*
G01X2154936Y1338834D02*
G01X2141728Y1334516D01*
G01X2133092Y1321308D01*
G01X2128520Y1299718D01*
G01X2128520Y1286510D01*
G01X2133092Y1264666D01*
G01X2141728Y1251458D01*
G01X2154936Y1247140D01*
G01X2163572Y1247140D01*
G01X2176526Y1251458D01*
G01X2185416Y1264666D01*
G01X2189734Y1286510D01*
G01X2189734Y1299718D01*
G01X2185416Y1321308D01*
G01X2176526Y1334516D01*
G01X2163572Y1338834D01*
G01X2154936Y1338834D01*
G01X2292096Y1338834D02*
G01X2248408Y1247140D01*
G01X2230882Y1338834D02*
G01X2292096Y1338834D01*
G54D10*
G01X884989Y574149D02*
G01X888037Y567799D01*
G01X894387Y561703D01*
G01X900483Y558655D01*
G01X912929Y558655D01*
G01X919025Y561703D01*
G01X925375Y567799D01*
G01X928423Y574149D01*
G01X931471Y583293D01*
G01X931471Y598787D01*
G01X928423Y608185D01*
G01X925375Y614281D01*
G01X919025Y620631D01*
G01X912929Y623679D01*
G01X900483Y623679D01*
G01X894387Y620631D01*
G01X888037Y614281D01*
G01X884989Y608185D01*
G01X854763Y571101D02*
G01X848667Y567799D01*
G01X839523Y558655D01*
G01X839523Y623679D01*
G01X955040Y250698D02*
G01X961390Y253746D01*
G01X967486Y260096D01*
G01X970534Y266192D01*
G01X970534Y278638D01*
G01X967486Y284734D01*
G01X961390Y291084D01*
G01X955040Y294132D01*
G01X945896Y297180D01*
G01X930402Y297180D01*
G01X921004Y294132D01*
G01X914908Y291084D01*
G01X908558Y284734D01*
G01X905510Y278638D01*
G01X905510Y266192D01*
G01X908558Y260096D01*
G01X914908Y253746D01*
G01X921004Y250698D01*
G01X955040Y217424D02*
G01X958088Y217424D01*
G01X964438Y214376D01*
G01X967486Y211328D01*
G01X970534Y205232D01*
G01X970534Y192786D01*
G01X967486Y186436D01*
G01X964438Y183388D01*
G01X958088Y180340D01*
G01X951992Y180340D01*
G01X945896Y183388D01*
G01X936498Y189738D01*
G01X905510Y220472D01*
G01X905510Y177292D01*
G01X314851Y364289D02*
G01X321201Y367337D01*
G01X327297Y373687D01*
G01X330345Y379783D01*
G01X330345Y392229D01*
G01X327297Y398325D01*
G01X321201Y404675D01*
G01X314851Y407723D01*
G01X305707Y410771D01*
G01X290213Y410771D01*
G01X280815Y407723D01*
G01X274719Y404675D01*
G01X268369Y398325D01*
G01X265321Y392229D01*
G01X265321Y379783D01*
G01X268369Y373687D01*
G01X274719Y367337D01*
G01X280815Y364289D01*
G01X330345Y303329D02*
G01X287165Y334063D01*
G01X287165Y287835D01*
G01X330345Y303329D02*
G01X265321Y303329D01*
G01X472714Y1408509D02*
G01X407690Y1408509D01*
G01X472714Y1408509D02*
G01X472714Y1380569D01*
G01X469666Y1371425D01*
G01X466618Y1368377D01*
G01X460268Y1365075D01*
G01X454172Y1365075D01*
G01X448076Y1368377D01*
G01X445028Y1371425D01*
G01X441726Y1380569D01*
G01X441726Y1408509D01*
G01X441726Y1386919D02*
G01X407690Y1365075D01*
G01X460268Y1334849D02*
G01X463570Y1328753D01*
G01X472714Y1319609D01*
G01X407690Y1319609D01*
G01X625114Y405209D02*
G01X560090Y405209D01*
G01X625114Y405209D02*
G01X625114Y377269D01*
G01X622066Y368125D01*
G01X619018Y365077D01*
G01X612668Y361775D01*
G01X606572Y361775D01*
G01X600476Y365077D01*
G01X597428Y368125D01*
G01X594126Y377269D01*
G01X594126Y405209D01*
G01X594126Y383619D02*
G01X560090Y361775D01*
G01X609620Y328501D02*
G01X612668Y328501D01*
G01X619018Y325453D01*
G01X622066Y322405D01*
G01X625114Y316309D01*
G01X625114Y303863D01*
G01X622066Y297513D01*
G01X619018Y294465D01*
G01X612668Y291417D01*
G01X606572Y291417D01*
G01X600476Y294465D01*
G01X591078Y300815D01*
G01X560090Y331549D01*
G01X560090Y288369D01*
G01X987786Y369491D02*
G01X1052810Y369491D01*
G01X987786Y369491D02*
G01X987786Y397431D01*
G01X990834Y406575D01*
G01X993882Y409623D01*
G01X1000232Y412925D01*
G01X1006328Y412925D01*
G01X1012424Y409623D01*
G01X1015472Y406575D01*
G01X1018774Y397431D01*
G01X1018774Y369491D01*
G01X1018774Y391081D02*
G01X1052810Y412925D01*
G01X987786Y449247D02*
G01X987786Y483283D01*
G01X1012424Y464741D01*
G01X1012424Y473885D01*
G01X1015472Y480235D01*
G01X1018774Y483283D01*
G01X1027918Y486331D01*
G01X1034268Y486331D01*
G01X1043412Y483283D01*
G01X1049762Y477187D01*
G01X1052810Y467789D01*
G01X1052810Y458391D01*
G01X1049762Y449247D01*
G01X1046460Y446199D01*
G01X1040364Y443151D01*
G01X801291Y1158514D02*
G01X801291Y1093490D01*
G01X801291Y1158514D02*
G01X829231Y1158514D01*
G01X838375Y1155466D01*
G01X841423Y1152418D01*
G01X844725Y1146068D01*
G01X844725Y1139972D01*
G01X841423Y1133876D01*
G01X838375Y1130828D01*
G01X829231Y1127526D01*
G01X801291Y1127526D01*
G01X822881Y1127526D02*
G01X844725Y1093490D01*
G01X905685Y1158514D02*
G01X874951Y1115334D01*
G01X921179Y1115334D01*
G01X905685Y1158514D02*
G01X905685Y1093490D01*
G01X1916509Y848086D02*
G01X1916509Y913110D01*
G01X1916509Y848086D02*
G01X1888569Y848086D01*
G01X1879425Y851134D01*
G01X1876377Y854182D01*
G01X1873075Y860532D01*
G01X1873075Y866628D01*
G01X1876377Y872724D01*
G01X1879425Y875772D01*
G01X1888569Y879074D01*
G01X1916509Y879074D01*
G01X1894919Y879074D02*
G01X1873075Y913110D01*
G01X1805765Y848086D02*
G01X1836753Y848086D01*
G01X1839801Y875772D01*
G01X1836753Y872724D01*
G01X1827609Y869676D01*
G01X1818211Y869676D01*
G01X1808813Y872724D01*
G01X1802717Y879074D01*
G01X1799669Y888218D01*
G01X1799669Y894568D01*
G01X1802717Y903712D01*
G01X1808813Y910062D01*
G01X1818211Y913110D01*
G01X1827609Y913110D01*
G01X1836753Y910062D01*
G01X1839801Y906760D01*
G01X1842849Y900664D01*
G01X1202489Y1120249D02*
G01X1205537Y1113899D01*
G01X1211887Y1107803D01*
G01X1217983Y1104755D01*
G01X1230429Y1104755D01*
G01X1236525Y1107803D01*
G01X1242875Y1113899D01*
G01X1245923Y1120249D01*
G01X1248971Y1129393D01*
G01X1248971Y1144887D01*
G01X1245923Y1154285D01*
G01X1242875Y1160381D01*
G01X1236525Y1166731D01*
G01X1230429Y1169779D01*
G01X1217983Y1169779D01*
G01X1211887Y1166731D01*
G01X1205537Y1160381D01*
G01X1202489Y1154285D01*
G01X1166167Y1104755D02*
G01X1132131Y1104755D01*
G01X1150673Y1129393D01*
G01X1141529Y1129393D01*
G01X1135179Y1132441D01*
G01X1132131Y1135743D01*
G01X1129083Y1144887D01*
G01X1129083Y1151237D01*
G01X1132131Y1160381D01*
G01X1138227Y1166731D01*
G01X1147625Y1169779D01*
G01X1157023Y1169779D01*
G01X1166167Y1166731D01*
G01X1169215Y1163429D01*
G01X1172263Y1157333D01*
G04 Text End*

G04 PolygonModel Start*
G54D12*
G01X3472701Y1274709D02*
G01X2322700Y1274709D01*
G01X3472688Y274701D02*
G01X2322573Y274704D01*
G01X3472688Y1274714D02*
G01X3472688Y274704D01*
G01X2322573Y1274714D02*
G01X2322573Y274704D01*
G01X2324100Y1167712D02*
G01X2552700Y1167712D01*
G01X2552700Y1167712D02*
G01X2552700Y1028012D01*
G01X2324100Y393703D02*
G01X2552700Y393703D01*
G01X2552700Y393703D02*
G01X2552700Y520703D01*
G01X2552700Y414228D02*
G01X2552700Y421587D01*
G01X2552700Y627814D02*
G01X2552700Y671599D01*
G01X2552700Y877827D02*
G01X2552700Y921586D01*
G01X2552700Y1127813D02*
G01X2552700Y1167712D01*
G01X1987288Y421500D02*
G01X1596880Y421500D01*
G01X1739900Y721500D02*
G01X1596880Y721500D01*
G01X1841500Y721614D02*
G01X1987288Y721614D01*
G01X1596880Y721500D02*
G01X1596880Y421500D01*
G01X1987288Y721500D02*
G01X1987288Y421500D01*
G01X1739900Y721500D02*
G03X1841500Y721614I50800J57D01*
G36*
G01X1663700Y700799D02*
G02X1663700Y619999I320J-40400D01*
G02X1663700Y700799I-320J40400D01*
G37*
G01X815419Y820257D02*
G01X895416Y820257D01*
G01X759374Y820303D02*
G01X679376Y820303D01*
G01X815419Y678289D02*
G01X895416Y678289D01*
G01X759374Y678337D02*
G01X679376Y678337D01*
G01X926391Y789275D02*
G01X926391Y709270D01*
G01X648399Y709323D02*
G01X648399Y789325D01*
G01X679381Y678337D02*
G02X648399Y709323I0J30983D01*
G01X648399Y789320D02*
G02X679381Y820303I30983J0D01*
G01X895411Y820257D02*
G02X926391Y789275I-3J-30983D01*
G01X926391Y709277D02*
G02X895411Y678289I-30983J-5D01*
G01X678343Y307419D02*
G01X678343Y387416D01*
G01X678297Y251374D02*
G01X678297Y171376D01*
G01X820311Y307419D02*
G01X820311Y387416D01*
G01X820263Y251374D02*
G01X820263Y171376D01*
G01X709325Y418391D02*
G01X789330Y418391D01*
G01X789277Y140399D02*
G01X709275Y140399D01*
G01X820263Y171381D02*
G02X789277Y140399I-30983J0D01*
G01X709280Y140399D02*
G02X678297Y171381I0J30983D01*
G01X678343Y387411D02*
G02X709325Y418391I30983J-3D01*
G01X789323Y418391D02*
G02X820311Y387411I5J-30983D01*
G01X68743Y294719D02*
G01X68743Y374716D01*
G01X68697Y238674D02*
G01X68697Y158676D01*
G01X210711Y294719D02*
G01X210711Y374716D01*
G01X210663Y238674D02*
G01X210663Y158676D01*
G01X99725Y405691D02*
G01X179730Y405691D01*
G01X179677Y127699D02*
G01X99675Y127699D01*
G01X210663Y158681D02*
G02X179677Y127699I-30983J0D01*
G01X99680Y127699D02*
G02X68697Y158681I0J30983D01*
G01X68743Y374711D02*
G02X99725Y405691I30983J-3D01*
G01X179723Y405691D02*
G02X210711Y374711I5J-30983D01*
G54D10*
G01X226040Y1227379D02*
G01X226040Y1131491D01*
G01X226040Y1131491D02*
G01X358160Y1131491D01*
G01X358160Y1131491D02*
G01X358160Y1227379D01*
G01X226040Y1312621D02*
G01X226040Y1408509D01*
G01X226040Y1408509D02*
G01X358160Y1408509D01*
G01X358160Y1408509D02*
G01X358160Y1312621D01*
G01X378440Y224079D02*
G01X378440Y128191D01*
G01X378440Y128191D02*
G01X510560Y128191D01*
G01X510560Y128191D02*
G01X510560Y224079D01*
G01X378440Y309321D02*
G01X378440Y405209D01*
G01X378440Y405209D02*
G01X510560Y405209D01*
G01X510560Y405209D02*
G01X510560Y309321D01*
G01X1234460Y550621D02*
G01X1234460Y646509D01*
G01X1234460Y646509D02*
G01X1102340Y646509D01*
G01X1102340Y646509D02*
G01X1102340Y550621D01*
G01X1234460Y465379D02*
G01X1234460Y369491D01*
G01X1234460Y369491D02*
G01X1102340Y369491D01*
G01X1102340Y369491D02*
G01X1102340Y465379D01*
G01X982421Y911840D02*
G01X1078309Y911840D01*
G01X1078309Y911840D02*
G01X1078309Y1043960D01*
G01X1078309Y1043960D02*
G01X982421Y1043960D01*
G01X897179Y911840D02*
G01X801291Y911840D01*
G01X801291Y911840D02*
G01X801291Y1043960D01*
G01X801291Y1043960D02*
G01X897179Y1043960D01*
G01X1735379Y1094760D02*
G01X1639491Y1094760D01*
G01X1639491Y1094760D02*
G01X1639491Y962640D01*
G01X1639491Y962640D02*
G01X1735379Y962640D01*
G01X1820621Y1094760D02*
G01X1916509Y1094760D01*
G01X1916509Y1094760D02*
G01X1916509Y962640D01*
G01X1916509Y962640D02*
G01X1820621Y962640D01*
G54D12*
G01X1132919Y1366357D02*
G01X1212916Y1366357D01*
G01X1076874Y1366403D02*
G01X996876Y1366403D01*
G01X1132919Y1224389D02*
G01X1212916Y1224389D01*
G01X1076874Y1224437D02*
G01X996876Y1224437D01*
G01X1243891Y1335375D02*
G01X1243891Y1255370D01*
G01X965899Y1255423D02*
G01X965899Y1335425D01*
G01X996881Y1224437D02*
G02X965899Y1255423I0J30983D01*
G01X965899Y1335420D02*
G02X996881Y1366403I30983J0D01*
G01X1212911Y1366357D02*
G02X1243891Y1335375I-3J-30983D01*
G01X1243891Y1255377D02*
G02X1212911Y1224389I-30983J-5D01*

M02*

