G04 Layer: TopLayer*
G04 EasyEDA Pro v3.2.148, 2026-07-02 00:58:48*
G04 Gerber Generator version 0.3*
G04 Scale: 100 percent, Rotated: No, Reflected: No*
G04 Dimensions in millimeters*
G04 Leading zeros omitted, absolute positions, 4 integers and 5 decimals*
G04 Generated by one-click*
G04 Object Configs: Pad,Via,Track,Text,Image,Dimension,BoardOutline,BoardCutout,CopperFilled,SolidRegion,FPCStiffener,Line,PlaneZone,ComponentProperty,ComponentSilkscreen,TearDrop*
G04 Layer Configs: 1,2,3,4,5,6,7,8,9,10,11,13,14,56*
G04 Copper Areas: 0*
%FSLAX45Y45*%
%MOMM*%
%ADD10C,1.6*%
%ADD11R,1.6X1.6*%
%ADD12O,1.454X0.35301*%
%ADD13C,1.7*%
%ADD14C,0.6096*%
%ADD15R,0.8X0.9*%
%ADD16R,0.9X0.8*%
%ADD17R,0.8693X0.80648*%
%ADD18R,0.86401X0.80648*%
%ADD19R,0.80648X0.86401*%
%ADD20C,0.61*%
%ADD21C,0.254*%
G75*


G04 Pad Start*
G54D10*
G01X2552700Y774713D03*
G01X2552700Y1024700D03*
G54D11*
G01X2552700Y524701D03*
G54D12*
G01X1497990Y669011D03*
G01X1497990Y603987D03*
G01X1497990Y538988D03*
G01X1497990Y473989D03*
G01X2083410Y669011D03*
G01X2083410Y603987D03*
G01X2083410Y538988D03*
G01X2083410Y473989D03*
G54D13*
G01X406400Y749300D03*
G54D14*
G01X2044700Y1028700D03*
G01X1502853Y1028700D03*
G01X1331855Y604001D03*
G01X1331855Y432664D03*
G01X1326884Y209398D03*
G01X2146479Y1430921D03*
G54D15*
G01X717398Y749300D03*
G01X857402Y749300D03*
G54D16*
G01X749300Y209398D03*
G01X749300Y349402D03*
G01X139700Y196698D03*
G01X139700Y336702D03*
G54D18*
G01X292100Y1194664D03*
G01X292100Y1345336D03*
G01X444500Y191364D03*
G01X444500Y342036D03*
G01X1168400Y583336D03*
G01X1168400Y432664D03*
G54D19*
G01X1015136Y977900D03*
G01X864464Y977900D03*
G01X1702664Y1028700D03*
G01X1853336Y1028700D03*
G54D15*
G01X1034898Y1295400D03*
G01X1174902Y1295400D03*
G04 Pad End*

G04 Via Start*
G54D20*
G01X1983397Y209398D03*
G04 Via End*

G04 Track Start*
G54D21*
G01X1174902Y1034898D02*
G01X1181100Y1028700D01*
G01X1130300Y977900D01*
G01X1015136Y977900D01*
G01X1497990Y669011D02*
G01X1502853Y673873D01*
G01X1502853Y1028700D01*
G01X1181100Y1028700D02*
G01X1502853Y1028700D01*
G01X1702664Y1028700D01*
G01X2146479Y1430921D02*
G01X377684Y1430921D01*
G01X292100Y1345336D01*
G01X139700Y1192936D01*
G01X139700Y336702D01*
G01X292100Y1194664D02*
G01X292100Y1104900D01*
G01X215900Y1028700D01*
G01X215900Y570636D01*
G01X444500Y342036D01*
G01X889000Y1295400D02*
G01X864464Y1270864D01*
G01X864464Y977900D01*
G01X864464Y754939D01*
G01X870102Y749300D01*
G01X1002436Y749300D02*
G01X1168400Y583336D01*
G01X857402Y749300D02*
G01X870102Y749300D01*
G01X1002436Y749300D01*
G01X1189050Y603987D02*
G01X1168400Y583336D01*
G01X444500Y342036D02*
G01X741934Y342036D01*
G01X749300Y349402D01*
G01X908202Y349402D01*
G01X990600Y431800D01*
G01X1167536Y431800D01*
G01X1168400Y432664D01*
G01X1308100Y432664D01*
G01X1414424Y538988D01*
G01X1497990Y538988D01*
G01X439166Y196698D02*
G01X444500Y191364D01*
G01X572364Y191364D01*
G01X596900Y215900D01*
G01X742798Y215900D01*
G01X749300Y209398D01*
G01X2044700Y1028700D02*
G01X2298687Y774713D01*
G01X2552700Y774713D01*
G01X2083410Y603987D02*
G01X2215413Y603987D01*
G01X2235200Y584200D01*
G01X2235200Y558800D01*
G01X2217239Y540839D01*
G01X2085261Y540839D01*
G01X2083410Y538988D01*
G01X2552700Y524701D02*
G01X2298700Y524701D01*
G01X2247989Y473989D01*
G01X2083410Y473989D01*
G01X2247989Y473989D02*
G01X1983397Y209398D01*
G01X1375106Y351105D02*
G01X1497990Y473989D01*
G01X1375106Y209398D02*
G01X1375106Y351105D01*
G01X1983397Y209398D02*
G01X1375106Y209398D01*
G01X2083410Y669011D02*
G01X2505809Y669011D01*
G01X2508006Y666813D01*
G01X2597394Y666813D01*
G01X2599591Y669011D01*
G01X2662911Y669011D01*
G01X2679700Y685800D01*
G01X2679700Y897700D01*
G01X2552700Y1024700D01*
G01X1853336Y1028700D02*
G01X2044700Y1028700D01*
G01X2552700Y1024700D02*
G01X2146479Y1430921D01*
G01X1174902Y1295400D02*
G01X1174902Y1034898D01*
G01X139700Y196698D02*
G01X439166Y196698D01*
G01X1034898Y1295400D02*
G01X889000Y1295400D01*
G01X730098Y749300D02*
G01X406400Y749300D01*
G01X1497990Y603987D02*
G01X1331855Y603987D01*
G01X1189050Y603987D01*
G01X1375106Y209398D02*
G01X1326884Y209398D01*
G01X749300Y209398D01*
G04 Track End*

M02*

