G04 Layer: TopPasteMaskLayer*
G04 EasyEDA Pro v3.2.148, 2026-07-02 00:58:48*
G04 Gerber Generator version 0.3*
G04 Scale: 100 percent, Rotated: No, Reflected: No*
G04 Dimensions in millimeters*
G04 Leading zeros omitted, absolute positions, 4 integers and 5 decimals*
G04 Generated by one-click*
G04 Object Configs: Pad,Via,Track,Text,Image,Dimension,BoardOutline,BoardCutout,CopperFilled,SolidRegion,FPCStiffener,Line,PlaneZone,ComponentProperty,ComponentSilkscreen,TearDrop*
G04 Layer Configs: 1,2,3,4,5,6,7,8,9,10,11,13,14,56*
G04 Copper Areas: 0*
%FSLAX45Y45*%
%MOMM*%
%ADD10O,1.454X0.35301*%
%ADD11R,0.8X0.9*%
%ADD12R,0.9X0.8*%
%ADD13C,0.8072*%
G75*


G04 PolygonModel Start*
G36*
G01X337099Y1150498D02*
G01X332097Y1145499D01*
G01X252098Y1145499D01*
G01X247099Y1150498D01*
G01X247099Y1230498D01*
G01X252098Y1235499D01*
G01X276301Y1235499D01*
G01X276301Y1198499D01*
G01X309301Y1198499D01*
G01X309301Y1235499D01*
G01X332097Y1235499D01*
G01X337099Y1230498D01*
G01X337099Y1150498D01*
G37*
G36*
G01X247101Y1389502D02*
G01X252103Y1394501D01*
G01X332102Y1394501D01*
G01X337101Y1389502D01*
G01X337101Y1309502D01*
G01X332102Y1304501D01*
G01X307899Y1304501D01*
G01X307899Y1341501D01*
G01X274899Y1341501D01*
G01X274899Y1304501D01*
G01X252103Y1304501D01*
G01X247101Y1309502D01*
G01X247101Y1389502D01*
G37*
G36*
G01X489499Y147198D02*
G01X484497Y142199D01*
G01X404498Y142199D01*
G01X399499Y147198D01*
G01X399499Y227198D01*
G01X404498Y232199D01*
G01X428701Y232199D01*
G01X428701Y195199D01*
G01X461701Y195199D01*
G01X461701Y232199D01*
G01X484497Y232199D01*
G01X489499Y227198D01*
G01X489499Y147198D01*
G37*
G36*
G01X399501Y386202D02*
G01X404503Y391201D01*
G01X484502Y391201D01*
G01X489501Y386202D01*
G01X489501Y306202D01*
G01X484502Y301201D01*
G01X460299Y301201D01*
G01X460299Y338201D01*
G01X427299Y338201D01*
G01X427299Y301201D01*
G01X404503Y301201D01*
G01X399501Y306202D01*
G01X399501Y386202D01*
G37*
G36*
G01X1123401Y627502D02*
G01X1128403Y632501D01*
G01X1208402Y632501D01*
G01X1213401Y627502D01*
G01X1213401Y547502D01*
G01X1208402Y542501D01*
G01X1184199Y542501D01*
G01X1184199Y579501D01*
G01X1151199Y579501D01*
G01X1151199Y542501D01*
G01X1128403Y542501D01*
G01X1123401Y547502D01*
G01X1123401Y627502D01*
G37*
G36*
G01X1213399Y388498D02*
G01X1208397Y383499D01*
G01X1128398Y383499D01*
G01X1123399Y388498D01*
G01X1123399Y468498D01*
G01X1128398Y473499D01*
G01X1152601Y473499D01*
G01X1152601Y436499D01*
G01X1185601Y436499D01*
G01X1185601Y473499D01*
G01X1208397Y473499D01*
G01X1213399Y468498D01*
G01X1213399Y388498D01*
G37*
G36*
G01X1059302Y1022899D02*
G01X1064301Y1017897D01*
G01X1064301Y937898D01*
G01X1059302Y932899D01*
G01X979302Y932899D01*
G01X974301Y937898D01*
G01X974301Y962101D01*
G01X1011301Y962101D01*
G01X1011301Y995101D01*
G01X974301Y995101D01*
G01X974301Y1017897D01*
G01X979302Y1022899D01*
G01X1059302Y1022899D01*
G37*
G36*
G01X820298Y932901D02*
G01X815299Y937903D01*
G01X815299Y1017902D01*
G01X820298Y1022901D01*
G01X900298Y1022901D01*
G01X905299Y1017902D01*
G01X905299Y993699D01*
G01X868299Y993699D01*
G01X868299Y960699D01*
G01X905299Y960699D01*
G01X905299Y937903D01*
G01X900298Y932901D01*
G01X820298Y932901D01*
G37*
G36*
G01X1658498Y983701D02*
G01X1653499Y988703D01*
G01X1653499Y1068702D01*
G01X1658498Y1073701D01*
G01X1738498Y1073701D01*
G01X1743499Y1068702D01*
G01X1743499Y1044499D01*
G01X1706499Y1044499D01*
G01X1706499Y1011499D01*
G01X1743499Y1011499D01*
G01X1743499Y988703D01*
G01X1738498Y983701D01*
G01X1658498Y983701D01*
G37*
G36*
G01X1897502Y1073699D02*
G01X1902501Y1068697D01*
G01X1902501Y988698D01*
G01X1897502Y983699D01*
G01X1817502Y983699D01*
G01X1812501Y988698D01*
G01X1812501Y1012901D01*
G01X1849501Y1012901D01*
G01X1849501Y1045901D01*
G01X1812501Y1045901D01*
G01X1812501Y1068697D01*
G01X1817502Y1073699D01*
G01X1897502Y1073699D01*
G37*

G04 Pad Start*
G54D10*
G01X1497990Y669011D03*
G01X1497990Y603987D03*
G01X1497990Y538988D03*
G01X1497990Y473989D03*
G01X2083410Y669011D03*
G01X2083410Y603987D03*
G01X2083410Y538988D03*
G01X2083410Y473989D03*
G54D11*
G01X717398Y749300D03*
G01X857402Y749300D03*
G54D12*
G01X749300Y209398D03*
G01X749300Y349402D03*
G01X139700Y196698D03*
G01X139700Y336702D03*
G54D11*
G01X1034898Y1295400D03*
G01X1174902Y1295400D03*
G04 Pad End*

M02*

