G04 Layer: BottomLayer*
G04 EasyEDA Pro v3.2.148, 2026-07-02 00:58:48*
G04 Gerber Generator version 0.3*
G04 Scale: 100 percent, Rotated: No, Reflected: No*
G04 Dimensions in millimeters*
G04 Leading zeros omitted, absolute positions, 4 integers and 5 decimals*
G04 Generated by one-click*
G04 Object Configs: Pad,Via,Track,Text,Image,Dimension,BoardOutline,BoardCutout,CopperFilled,SolidRegion,FPCStiffener,Line,PlaneZone,ComponentProperty,ComponentSilkscreen,TearDrop*
G04 Layer Configs: 1,2,3,4,5,6,7,8,9,10,11,13,14,56*
G04 Copper Areas: 5*
%FSLAX45Y45*%
%MOMM*%
%ADD10C,0.2032*%
%ADD11C,0.254*%
%ADD12C,1.6*%
%ADD13R,1.6X1.6*%
%ADD14C,1.7*%
%ADD15C,0.6155*%
%ADD16C,0.61*%
G75*


G04 Copper Start*
G36*
G01X48260Y48260D02*
G01X48260Y604700D01*
G01X2436886Y604700D01*
G01X2436886Y444701D01*
G01X2438639Y433634D01*
G01X2443726Y423650D01*
G01X2451649Y415727D01*
G01X2461633Y410640D01*
G01X2472700Y408887D01*
G01X2632700Y408887D01*
G01X2632700Y408887D01*
G01X2643767Y410640D01*
G01X2653751Y415727D01*
G01X2661674Y423650D01*
G01X2666761Y433634D01*
G01X2668514Y444701D01*
G01X2668514Y604700D01*
G01X2666761Y615767D01*
G01X2661674Y625751D01*
G01X2653751Y633674D01*
G01X2643767Y638761D01*
G01X2632700Y640514D01*
G01X2472700Y640514D01*
G01X2461633Y638761D01*
G01X2451649Y633674D01*
G01X2443726Y625751D01*
G01X2438639Y615767D01*
G01X2436886Y604700D01*
G01X48260Y604700D01*
G01X48260Y749300D01*
G01X285586Y749300D01*
G01X287421Y728321D01*
G01X292872Y707979D01*
G01X301772Y688893D01*
G01X313851Y671642D01*
G01X328742Y656751D01*
G01X345993Y644672D01*
G01X365079Y635772D01*
G01X385421Y630321D01*
G01X406400Y628486D01*
G01X427379Y630321D01*
G01X447721Y635772D01*
G01X466807Y644672D01*
G01X484058Y656751D01*
G01X498949Y671642D01*
G01X511028Y688893D01*
G01X519928Y707979D01*
G01X525379Y728321D01*
G01X527214Y749300D01*
G01X525379Y770279D01*
G01X524191Y774713D01*
G01X2436886Y774713D01*
G01X2438858Y753432D01*
G01X2444707Y732876D01*
G01X2454233Y713745D01*
G01X2467113Y696689D01*
G01X2482907Y682291D01*
G01X2501077Y671040D01*
G01X2521006Y663320D01*
G01X2542014Y659393D01*
G01X2563386Y659393D01*
G01X2584394Y663320D01*
G01X2604323Y671040D01*
G01X2622493Y682291D01*
G01X2638287Y696689D01*
G01X2651167Y713745D01*
G01X2660693Y732876D01*
G01X2666542Y753432D01*
G01X2668514Y774713D01*
G01X2666542Y795993D01*
G01X2660693Y816549D01*
G01X2651167Y835681D01*
G01X2638287Y852736D01*
G01X2622493Y867134D01*
G01X2604323Y878385D01*
G01X2584394Y886105D01*
G01X2563386Y890032D01*
G01X2542014Y890032D01*
G01X2521006Y886105D01*
G01X2501077Y878385D01*
G01X2482907Y867134D01*
G01X2467113Y852736D01*
G01X2454233Y835681D01*
G01X2444707Y816549D01*
G01X2438858Y795993D01*
G01X2436886Y774713D01*
G01X2436886Y774713D01*
G01X524191Y774713D01*
G01X519928Y790621D01*
G01X511028Y809707D01*
G01X498949Y826958D01*
G01X484058Y841849D01*
G01X466807Y853928D01*
G01X447721Y862828D01*
G01X427379Y868279D01*
G01X406400Y870114D01*
G01X385421Y868279D01*
G01X365079Y862828D01*
G01X345993Y853928D01*
G01X328742Y841849D01*
G01X313851Y826958D01*
G01X301772Y809707D01*
G01X292872Y790621D01*
G01X287421Y770279D01*
G01X285586Y749300D01*
G01X285586Y749300D01*
G01X48260Y749300D01*
G01X48260Y1024700D01*
G01X2436886Y1024700D01*
G01X2438858Y1003419D01*
G01X2444707Y982863D01*
G01X2454233Y963731D01*
G01X2467113Y946676D01*
G01X2482907Y932278D01*
G01X2501077Y921027D01*
G01X2521006Y913307D01*
G01X2542014Y909380D01*
G01X2563386Y909380D01*
G01X2584394Y913307D01*
G01X2604323Y921027D01*
G01X2622493Y932278D01*
G01X2638287Y946676D01*
G01X2651167Y963731D01*
G01X2660693Y982863D01*
G01X2666542Y1003419D01*
G01X2668514Y1024700D01*
G01X2666542Y1045980D01*
G01X2660693Y1066536D01*
G01X2651167Y1085668D01*
G01X2638287Y1102723D01*
G01X2622493Y1117121D01*
G01X2604323Y1128372D01*
G01X2584394Y1136092D01*
G01X2563386Y1140019D01*
G01X2542014Y1140019D01*
G01X2521006Y1136092D01*
G01X2501077Y1128372D01*
G01X2482907Y1117121D01*
G01X2467113Y1102723D01*
G01X2454233Y1085668D01*
G01X2444707Y1066536D01*
G01X2438858Y1045980D01*
G01X2436886Y1024700D01*
G01X2436886Y1024700D01*
G01X48260Y1024700D01*
G01X48260Y1463040D01*
G01X2796540Y1463040D01*
G01X2796540Y48260D01*
G01X48260Y48260D01*
G37*
G54D10*
G01X48260Y48260D02*
G01X48260Y1463040D01*
G01X2796540Y1463040D01*
G01X2796540Y48260D01*
G01X48260Y48260D01*
G01X285586Y749300D02*
G03X527214Y749300I120814J0D01*
G03X285586Y749300I-120814J0D01*
G01X2436886Y1024700D02*
G03X2668514Y1024700I115814J0D01*
G03X2436886Y1024700I-115814J0D01*
G01X2632700Y408887D02*
G03X2668514Y444701I0J35814D01*
G01X2668514Y604700D01*
G03X2632700Y640514I-35814J0D01*
G01X2472700Y640514D01*
G03X2436886Y604700I0J-35814D01*
G01X2436886Y444701D01*
G03X2472700Y408887I35814J0D01*
G01X2632700Y408887D01*
G01X2436886Y774713D02*
G03X2668514Y774713I115814J0D01*
G03X2436886Y774713I-115814J0D01*
G54D11*
G01X2552700Y524701D02*
G01X2447046Y524701D01*
G01X2552700Y524701D02*
G01X2658354Y524701D01*
G01X2552700Y524701D02*
G01X2552700Y630354D01*
G01X2552700Y524701D02*
G01X2552700Y419047D01*
G04 Copper End*

G04 Pad Start*
G54D12*
G01X2552700Y774713D03*
G01X2552700Y1024700D03*
G54D13*
G01X2552700Y524701D03*
G54D14*
G01X406400Y749300D03*
G04 Pad End*

G04 Via Start*
G54D16*
G01X1983397Y209398D03*
G04 Via End*

M02*

