G04 Layer: DrillDrawingLayer*
G04 EasyEDA Pro v3.2.148, 2026-07-02 00:40:49*
G04 Gerber Generator version 0.3*
G04 Scale: 100 percent, Rotated: No, Reflected: No*
G04 Dimensions in millimeters*
G04 Leading zeros omitted, absolute positions, 4 integers and 5 decimals*
G04 Generated by one-click*
G04 Object Configs: Pad,Via,Track,Text,Image,Dimension,BoardOutline,BoardCutout,CopperFilled,SolidRegion,FPCStiffener,Line,PlaneZone,ComponentProperty,ComponentSilkscreen,TearDrop*
G04 Layer Configs: 1,2,3,4,5,6,7,8,9,10,11,13,14,56*
G04 Copper Areas: 0*
%FSLAX45Y45*%
%MOMM*%
%AMIconRect*4,1,4,0.28,-0.28,-0.28,-0.28,-0.28,0.28,0.28,0.28,0.28,-0.28,0*4,0,4,0.233333,-0.233333,0.233333,0.233333,-0.233333,0.233333,-0.233333,-0.233333,0.233333,-0.233333,0*%
%AMIconTriangle*4,1,3,-0.339593,0.240473,0.339593,0.240473,0,-0.37884,-0.339593,0.240473,0*4,0,3,-0.265673,0.19404,0,-0.27342,0.266233,0.19404,-0.265673,0.19404,0*%
%ADD10IconRect*%
%ADD11C,0.616X0.522667*%
%ADD12IconTriangle*%
%ADD13C,0.2032*%
%ADD14C,0.254*%
G75*


G04 Drill Drawing Start*
G54D10*
G01X1983397Y209398D03*
G54D11*
G01X406400Y749300D03*
G54D12*
G01X2552700Y1024700D03*
G01X2552700Y524701D03*
G01X2552700Y774713D03*
G04 Drill Drawing End*

G04 Text Start*
G54D13*
G01X5792946Y1289594D02*
G01X5792946Y1169452D01*
G01X5792946Y1289594D02*
G01X5838666Y1169452D01*
G01X5884386Y1289594D02*
G01X5838666Y1169452D01*
G01X5884386Y1289594D02*
G01X5884386Y1169452D01*
G01X6000718Y1249462D02*
G01X6000718Y1169452D01*
G01X6000718Y1232444D02*
G01X5989288Y1243874D01*
G01X5977858Y1249462D01*
G01X5960840Y1249462D01*
G01X5949410Y1243874D01*
G01X5937980Y1232444D01*
G01X5932138Y1215172D01*
G01X5932138Y1203742D01*
G01X5937980Y1186724D01*
G01X5949410Y1175294D01*
G01X5960840Y1169452D01*
G01X5977858Y1169452D01*
G01X5989288Y1175294D01*
G01X6000718Y1186724D01*
G01X6048470Y1249462D02*
G01X6048470Y1169452D01*
G01X6048470Y1215172D02*
G01X6054312Y1232444D01*
G01X6065742Y1243874D01*
G01X6077172Y1249462D01*
G01X6094190Y1249462D01*
G01X6141942Y1289594D02*
G01X6141942Y1169452D01*
G01X6199092Y1249462D02*
G01X6141942Y1192312D01*
G01X6164802Y1215172D02*
G01X6204934Y1169452D01*
G01X7330226Y1260892D02*
G01X7324384Y1272322D01*
G01X7312954Y1283752D01*
G01X7301524Y1289594D01*
G01X7278664Y1289594D01*
G01X7267234Y1283752D01*
G01X7255804Y1272322D01*
G01X7250216Y1260892D01*
G01X7244374Y1243874D01*
G01X7244374Y1215172D01*
G01X7250216Y1198154D01*
G01X7255804Y1186724D01*
G01X7267234Y1175294D01*
G01X7278664Y1169452D01*
G01X7301524Y1169452D01*
G01X7312954Y1175294D01*
G01X7324384Y1186724D01*
G01X7330226Y1198154D01*
G01X7406680Y1249462D02*
G01X7395250Y1243874D01*
G01X7383820Y1232444D01*
G01X7377978Y1215172D01*
G01X7377978Y1203742D01*
G01X7383820Y1186724D01*
G01X7395250Y1175294D01*
G01X7406680Y1169452D01*
G01X7423698Y1169452D01*
G01X7435128Y1175294D01*
G01X7446558Y1186724D01*
G01X7452400Y1203742D01*
G01X7452400Y1215172D01*
G01X7446558Y1232444D01*
G01X7435128Y1243874D01*
G01X7423698Y1249462D01*
G01X7406680Y1249462D01*
G01X7500152Y1249462D02*
G01X7500152Y1192312D01*
G01X7505994Y1175294D01*
G01X7517424Y1169452D01*
G01X7534442Y1169452D01*
G01X7545872Y1175294D01*
G01X7563144Y1192312D01*
G01X7563144Y1249462D02*
G01X7563144Y1169452D01*
G01X7610896Y1249462D02*
G01X7610896Y1169452D01*
G01X7610896Y1226602D02*
G01X7628168Y1243874D01*
G01X7639598Y1249462D01*
G01X7656616Y1249462D01*
G01X7668046Y1243874D01*
G01X7673888Y1226602D01*
G01X7673888Y1169452D01*
G01X7738912Y1289594D02*
G01X7738912Y1192312D01*
G01X7744500Y1175294D01*
G01X7755930Y1169452D01*
G01X7767360Y1169452D01*
G01X7721640Y1249462D02*
G01X7761772Y1249462D01*
G01X8738547Y1272322D02*
G01X8727117Y1283752D01*
G01X8710099Y1289594D01*
G01X8687239Y1289594D01*
G01X8669967Y1283752D01*
G01X8658537Y1272322D01*
G01X8658537Y1260892D01*
G01X8664379Y1249462D01*
G01X8669967Y1243874D01*
G01X8681397Y1238032D01*
G01X8715687Y1226602D01*
G01X8727117Y1221014D01*
G01X8732959Y1215172D01*
G01X8738547Y1203742D01*
G01X8738547Y1186724D01*
G01X8727117Y1175294D01*
G01X8710099Y1169452D01*
G01X8687239Y1169452D01*
G01X8669967Y1175294D01*
G01X8658537Y1186724D01*
G01X8786299Y1289594D02*
G01X8792141Y1283752D01*
G01X8797729Y1289594D01*
G01X8792141Y1295182D01*
G01X8786299Y1289594D01*
G01X8792141Y1249462D02*
G01X8792141Y1169452D01*
G01X8908473Y1249462D02*
G01X8845481Y1169452D01*
G01X8845481Y1249462D02*
G01X8908473Y1249462D01*
G01X8845481Y1169452D02*
G01X8908473Y1169452D01*
G01X8956225Y1215172D02*
G01X9024805Y1215172D01*
G01X9024805Y1226602D01*
G01X9019217Y1238032D01*
G01X9013375Y1243874D01*
G01X9001945Y1249462D01*
G01X8984927Y1249462D01*
G01X8973497Y1243874D01*
G01X8962067Y1232444D01*
G01X8956225Y1215172D01*
G01X8956225Y1203742D01*
G01X8962067Y1186724D01*
G01X8973497Y1175294D01*
G01X8984927Y1169452D01*
G01X9001945Y1169452D01*
G01X9013375Y1175294D01*
G01X9024805Y1186724D01*
G01X12449887Y1289594D02*
G01X12449887Y1169452D01*
G01X12449887Y1289594D02*
G01X12501449Y1289594D01*
G01X12518467Y1283752D01*
G01X12524309Y1278164D01*
G01X12529897Y1266734D01*
G01X12529897Y1249462D01*
G01X12524309Y1238032D01*
G01X12518467Y1232444D01*
G01X12501449Y1226602D01*
G01X12449887Y1226602D01*
G01X12577649Y1289594D02*
G01X12577649Y1169452D01*
G01X12693981Y1249462D02*
G01X12693981Y1169452D01*
G01X12693981Y1232444D02*
G01X12682551Y1243874D01*
G01X12671121Y1249462D01*
G01X12654103Y1249462D01*
G01X12642673Y1243874D01*
G01X12631243Y1232444D01*
G01X12625401Y1215172D01*
G01X12625401Y1203742D01*
G01X12631243Y1186724D01*
G01X12642673Y1175294D01*
G01X12654103Y1169452D01*
G01X12671121Y1169452D01*
G01X12682551Y1175294D01*
G01X12693981Y1186724D01*
G01X12759005Y1289594D02*
G01X12759005Y1192312D01*
G01X12764593Y1175294D01*
G01X12776023Y1169452D01*
G01X12787453Y1169452D01*
G01X12741733Y1249462D02*
G01X12781865Y1249462D01*
G01X12835205Y1215172D02*
G01X12903785Y1215172D01*
G01X12903785Y1226602D01*
G01X12898197Y1238032D01*
G01X12892355Y1243874D01*
G01X12880925Y1249462D01*
G01X12863907Y1249462D01*
G01X12852477Y1243874D01*
G01X12841047Y1232444D01*
G01X12835205Y1215172D01*
G01X12835205Y1203742D01*
G01X12841047Y1186724D01*
G01X12852477Y1175294D01*
G01X12863907Y1169452D01*
G01X12880925Y1169452D01*
G01X12892355Y1175294D01*
G01X12903785Y1186724D01*
G01X13020117Y1289594D02*
G01X13020117Y1169452D01*
G01X13020117Y1232444D02*
G01X13008687Y1243874D01*
G01X12997257Y1249462D01*
G01X12980239Y1249462D01*
G01X12968809Y1243874D01*
G01X12957379Y1232444D01*
G01X12951537Y1215172D01*
G01X12951537Y1203742D01*
G01X12957379Y1186724D01*
G01X12968809Y1175294D01*
G01X12980239Y1169452D01*
G01X12997257Y1169452D01*
G01X13008687Y1175294D01*
G01X13020117Y1186724D01*
G01X13991304Y1272322D02*
G01X13979874Y1283752D01*
G01X13962856Y1289594D01*
G01X13939996Y1289594D01*
G01X13922724Y1283752D01*
G01X13911294Y1272322D01*
G01X13911294Y1260892D01*
G01X13917136Y1249462D01*
G01X13922724Y1243874D01*
G01X13934154Y1238032D01*
G01X13968444Y1226602D01*
G01X13979874Y1221014D01*
G01X13985716Y1215172D01*
G01X13991304Y1203742D01*
G01X13991304Y1186724D01*
G01X13979874Y1175294D01*
G01X13962856Y1169452D01*
G01X13939996Y1169452D01*
G01X13922724Y1175294D01*
G01X13911294Y1186724D01*
G01X14039056Y1289594D02*
G01X14039056Y1169452D01*
G01X14039056Y1226602D02*
G01X14056328Y1243874D01*
G01X14067758Y1249462D01*
G01X14084776Y1249462D01*
G01X14096206Y1243874D01*
G01X14102048Y1226602D01*
G01X14102048Y1169452D01*
G01X14218380Y1249462D02*
G01X14218380Y1169452D01*
G01X14218380Y1232444D02*
G01X14206950Y1243874D01*
G01X14195520Y1249462D01*
G01X14178502Y1249462D01*
G01X14167072Y1243874D01*
G01X14155642Y1232444D01*
G01X14149800Y1215172D01*
G01X14149800Y1203742D01*
G01X14155642Y1186724D01*
G01X14167072Y1175294D01*
G01X14178502Y1169452D01*
G01X14195520Y1169452D01*
G01X14206950Y1175294D01*
G01X14218380Y1186724D01*
G01X14266132Y1249462D02*
G01X14266132Y1129574D01*
G01X14266132Y1232444D02*
G01X14277562Y1243874D01*
G01X14288992Y1249462D01*
G01X14306264Y1249462D01*
G01X14317694Y1243874D01*
G01X14329124Y1232444D01*
G01X14334712Y1215172D01*
G01X14334712Y1203742D01*
G01X14329124Y1186724D01*
G01X14317694Y1175294D01*
G01X14306264Y1169452D01*
G01X14288992Y1169452D01*
G01X14277562Y1175294D01*
G01X14266132Y1186724D01*
G01X14382464Y1215172D02*
G01X14451044Y1215172D01*
G01X14451044Y1226602D01*
G01X14445456Y1238032D01*
G01X14439614Y1243874D01*
G01X14428184Y1249462D01*
G01X14411166Y1249462D01*
G01X14399736Y1243874D01*
G01X14388306Y1232444D01*
G01X14382464Y1215172D01*
G01X14382464Y1203742D01*
G01X14388306Y1186724D01*
G01X14399736Y1175294D01*
G01X14411166Y1169452D01*
G01X14428184Y1169452D01*
G01X14439614Y1175294D01*
G01X14451044Y1186724D01*
G01X15342475Y1289594D02*
G01X15388195Y1169452D01*
G01X15433915Y1289594D02*
G01X15388195Y1169452D01*
G01X15481667Y1289594D02*
G01X15487509Y1283752D01*
G01X15493097Y1289594D01*
G01X15487509Y1295182D01*
G01X15481667Y1289594D01*
G01X15487509Y1249462D02*
G01X15487509Y1169452D01*
G01X15609429Y1249462D02*
G01X15609429Y1169452D01*
G01X15609429Y1232444D02*
G01X15597999Y1243874D01*
G01X15586569Y1249462D01*
G01X15569551Y1249462D01*
G01X15558121Y1243874D01*
G01X15546691Y1232444D01*
G01X15540849Y1215172D01*
G01X15540849Y1203742D01*
G01X15546691Y1186724D01*
G01X15558121Y1175294D01*
G01X15569551Y1169452D01*
G01X15586569Y1169452D01*
G01X15597999Y1175294D01*
G01X15609429Y1186724D01*
G01X15760051Y1312454D02*
G01X15657181Y1129574D01*
G01X15807803Y1289594D02*
G01X15807803Y1169452D01*
G01X15807803Y1289594D02*
G01X15859365Y1289594D01*
G01X15876383Y1283752D01*
G01X15882225Y1278164D01*
G01X15887813Y1266734D01*
G01X15887813Y1249462D01*
G01X15882225Y1238032D01*
G01X15876383Y1232444D01*
G01X15859365Y1226602D01*
G01X15807803Y1226602D01*
G01X16004145Y1249462D02*
G01X16004145Y1169452D01*
G01X16004145Y1232444D02*
G01X15992715Y1243874D01*
G01X15981285Y1249462D01*
G01X15964267Y1249462D01*
G01X15952837Y1243874D01*
G01X15941407Y1232444D01*
G01X15935565Y1215172D01*
G01X15935565Y1203742D01*
G01X15941407Y1186724D01*
G01X15952837Y1175294D01*
G01X15964267Y1169452D01*
G01X15981285Y1169452D01*
G01X15992715Y1175294D01*
G01X16004145Y1186724D01*
G01X16120477Y1289594D02*
G01X16120477Y1169452D01*
G01X16120477Y1232444D02*
G01X16109047Y1243874D01*
G01X16097617Y1249462D01*
G01X16080599Y1249462D01*
G01X16069169Y1243874D01*
G01X16057739Y1232444D01*
G01X16051897Y1215172D01*
G01X16051897Y1203742D01*
G01X16057739Y1186724D01*
G01X16069169Y1175294D01*
G01X16080599Y1169452D01*
G01X16097617Y1169452D01*
G01X16109047Y1175294D01*
G01X16120477Y1186724D01*
G01X17011654Y1289594D02*
G01X17011654Y1169452D01*
G01X17011654Y1289594D02*
G01X17063216Y1289594D01*
G01X17080234Y1283752D01*
G01X17086076Y1278164D01*
G01X17091664Y1266734D01*
G01X17091664Y1249462D01*
G01X17086076Y1238032D01*
G01X17080234Y1232444D01*
G01X17063216Y1226602D01*
G01X17011654Y1226602D01*
G01X17207996Y1249462D02*
G01X17207996Y1169452D01*
G01X17207996Y1232444D02*
G01X17196566Y1243874D01*
G01X17185136Y1249462D01*
G01X17168118Y1249462D01*
G01X17156688Y1243874D01*
G01X17145258Y1232444D01*
G01X17139416Y1215172D01*
G01X17139416Y1203742D01*
G01X17145258Y1186724D01*
G01X17156688Y1175294D01*
G01X17168118Y1169452D01*
G01X17185136Y1169452D01*
G01X17196566Y1175294D01*
G01X17207996Y1186724D01*
G01X17324328Y1289594D02*
G01X17324328Y1169452D01*
G01X17324328Y1232444D02*
G01X17312898Y1243874D01*
G01X17301468Y1249462D01*
G01X17284450Y1249462D01*
G01X17273020Y1243874D01*
G01X17261590Y1232444D01*
G01X17255748Y1215172D01*
G01X17255748Y1203742D01*
G01X17261590Y1186724D01*
G01X17273020Y1175294D01*
G01X17284450Y1169452D01*
G01X17301468Y1169452D01*
G01X17312898Y1175294D01*
G01X17324328Y1186724D01*
G01X17580106Y1272322D02*
G01X17568676Y1283752D01*
G01X17551658Y1289594D01*
G01X17528798Y1289594D01*
G01X17511526Y1283752D01*
G01X17500096Y1272322D01*
G01X17500096Y1260892D01*
G01X17505938Y1249462D01*
G01X17511526Y1243874D01*
G01X17522956Y1238032D01*
G01X17557246Y1226602D01*
G01X17568676Y1221014D01*
G01X17574518Y1215172D01*
G01X17580106Y1203742D01*
G01X17580106Y1186724D01*
G01X17568676Y1175294D01*
G01X17551658Y1169452D01*
G01X17528798Y1169452D01*
G01X17511526Y1175294D01*
G01X17500096Y1186724D01*
G01X17627858Y1289594D02*
G01X17627858Y1169452D01*
G01X17627858Y1226602D02*
G01X17645130Y1243874D01*
G01X17656560Y1249462D01*
G01X17673578Y1249462D01*
G01X17685008Y1243874D01*
G01X17690850Y1226602D01*
G01X17690850Y1169452D01*
G01X17807182Y1249462D02*
G01X17807182Y1169452D01*
G01X17807182Y1232444D02*
G01X17795752Y1243874D01*
G01X17784322Y1249462D01*
G01X17767304Y1249462D01*
G01X17755874Y1243874D01*
G01X17744444Y1232444D01*
G01X17738602Y1215172D01*
G01X17738602Y1203742D01*
G01X17744444Y1186724D01*
G01X17755874Y1175294D01*
G01X17767304Y1169452D01*
G01X17784322Y1169452D01*
G01X17795752Y1175294D01*
G01X17807182Y1186724D01*
G01X17854934Y1249462D02*
G01X17854934Y1129574D01*
G01X17854934Y1232444D02*
G01X17866364Y1243874D01*
G01X17877794Y1249462D01*
G01X17895066Y1249462D01*
G01X17906496Y1243874D01*
G01X17917926Y1232444D01*
G01X17923514Y1215172D01*
G01X17923514Y1203742D01*
G01X17917926Y1186724D01*
G01X17906496Y1175294D01*
G01X17895066Y1169452D01*
G01X17877794Y1169452D01*
G01X17866364Y1175294D01*
G01X17854934Y1186724D01*
G01X17971266Y1215172D02*
G01X18039846Y1215172D01*
G01X18039846Y1226602D01*
G01X18034258Y1238032D01*
G01X18028416Y1243874D01*
G01X18016986Y1249462D01*
G01X17999968Y1249462D01*
G01X17988538Y1243874D01*
G01X17977108Y1232444D01*
G01X17971266Y1215172D01*
G01X17971266Y1203742D01*
G01X17977108Y1186724D01*
G01X17988538Y1175294D01*
G01X17999968Y1169452D01*
G01X18016986Y1169452D01*
G01X18028416Y1175294D01*
G01X18039846Y1186724D01*
G01X18931023Y1289594D02*
G01X18931023Y1169452D01*
G01X18931023Y1169452D02*
G01X18999603Y1169452D01*
G01X19115935Y1249462D02*
G01X19115935Y1169452D01*
G01X19115935Y1232444D02*
G01X19104505Y1243874D01*
G01X19093075Y1249462D01*
G01X19076057Y1249462D01*
G01X19064627Y1243874D01*
G01X19053197Y1232444D01*
G01X19047355Y1215172D01*
G01X19047355Y1203742D01*
G01X19053197Y1186724D01*
G01X19064627Y1175294D01*
G01X19076057Y1169452D01*
G01X19093075Y1169452D01*
G01X19104505Y1175294D01*
G01X19115935Y1186724D01*
G01X19169529Y1249462D02*
G01X19203819Y1169452D01*
G01X19238109Y1249462D02*
G01X19203819Y1169452D01*
G01X19192389Y1146592D01*
G01X19180959Y1135162D01*
G01X19169529Y1129574D01*
G01X19163687Y1129574D01*
G01X19285861Y1215172D02*
G01X19354441Y1215172D01*
G01X19354441Y1226602D01*
G01X19348853Y1238032D01*
G01X19343011Y1243874D01*
G01X19331581Y1249462D01*
G01X19314563Y1249462D01*
G01X19303133Y1243874D01*
G01X19291703Y1232444D01*
G01X19285861Y1215172D01*
G01X19285861Y1203742D01*
G01X19291703Y1186724D01*
G01X19303133Y1175294D01*
G01X19314563Y1169452D01*
G01X19331581Y1169452D01*
G01X19343011Y1175294D01*
G01X19354441Y1186724D01*
G01X19402193Y1249462D02*
G01X19402193Y1169452D01*
G01X19402193Y1215172D02*
G01X19408035Y1232444D01*
G01X19419465Y1243874D01*
G01X19430895Y1249462D01*
G01X19447913Y1249462D01*
G01X19623681Y1289594D02*
G01X19623681Y1169452D01*
G01X19623681Y1289594D02*
G01X19675243Y1289594D01*
G01X19692261Y1283752D01*
G01X19698103Y1278164D01*
G01X19703691Y1266734D01*
G01X19703691Y1249462D01*
G01X19698103Y1238032D01*
G01X19692261Y1232444D01*
G01X19675243Y1226602D01*
G01X19623681Y1226602D01*
G01X19820023Y1249462D02*
G01X19820023Y1169452D01*
G01X19820023Y1232444D02*
G01X19808593Y1243874D01*
G01X19797163Y1249462D01*
G01X19780145Y1249462D01*
G01X19768715Y1243874D01*
G01X19757285Y1232444D01*
G01X19751443Y1215172D01*
G01X19751443Y1203742D01*
G01X19757285Y1186724D01*
G01X19768715Y1175294D01*
G01X19780145Y1169452D01*
G01X19797163Y1169452D01*
G01X19808593Y1175294D01*
G01X19820023Y1186724D01*
G01X19867775Y1289594D02*
G01X19873617Y1283752D01*
G01X19879205Y1289594D01*
G01X19873617Y1295182D01*
G01X19867775Y1289594D01*
G01X19873617Y1249462D02*
G01X19873617Y1169452D01*
G01X19926957Y1249462D02*
G01X19926957Y1169452D01*
G01X19926957Y1215172D02*
G01X19932799Y1232444D01*
G01X19944229Y1243874D01*
G01X19955659Y1249462D01*
G01X19972677Y1249462D01*
G01X7244374Y686163D02*
G01X7255804Y691751D01*
G01X7273076Y709023D01*
G01X7273076Y588881D01*
G01X8658537Y686163D02*
G01X8669967Y691751D01*
G01X8687239Y709023D01*
G01X8687239Y588881D01*
G01X8740833Y680321D02*
G01X8740833Y686163D01*
G01X8746421Y697593D01*
G01X8752263Y703181D01*
G01X8763693Y709023D01*
G01X8786553Y709023D01*
G01X8797983Y703181D01*
G01X8803571Y697593D01*
G01X8809413Y686163D01*
G01X8809413Y674733D01*
G01X8803571Y663303D01*
G01X8792141Y646031D01*
G01X8734991Y588881D01*
G01X8815001Y588881D01*
G01X8868595Y617583D02*
G01X8862753Y611741D01*
G01X8868595Y606153D01*
G01X8874183Y611741D01*
G01X8868595Y617583D01*
G01X8956225Y709023D02*
G01X8939207Y703181D01*
G01X8927777Y686163D01*
G01X8921935Y657461D01*
G01X8921935Y640443D01*
G01X8927777Y611741D01*
G01X8939207Y594723D01*
G01X8956225Y588881D01*
G01X8967655Y588881D01*
G01X8984927Y594723D01*
G01X8996357Y611741D01*
G01X9001945Y640443D01*
G01X9001945Y657461D01*
G01X8996357Y686163D01*
G01X8984927Y703181D01*
G01X8967655Y709023D01*
G01X8956225Y709023D01*
G01X9049697Y668891D02*
G01X9049697Y588881D01*
G01X9049697Y646031D02*
G01X9066969Y663303D01*
G01X9078399Y668891D01*
G01X9095417Y668891D01*
G01X9106847Y663303D01*
G01X9112689Y646031D01*
G01X9112689Y588881D01*
G01X9112689Y646031D02*
G01X9129707Y663303D01*
G01X9141137Y668891D01*
G01X9158409Y668891D01*
G01X9169839Y663303D01*
G01X9175427Y646031D01*
G01X9175427Y588881D01*
G01X9223179Y709023D02*
G01X9229021Y703181D01*
G01X9234609Y709023D01*
G01X9229021Y714611D01*
G01X9223179Y709023D01*
G01X9229021Y668891D02*
G01X9229021Y588881D01*
G01X9282361Y709023D02*
G01X9282361Y588881D01*
G01X9370245Y731883D02*
G01X9358815Y720453D01*
G01X9347385Y703181D01*
G01X9335955Y680321D01*
G01X9330113Y651873D01*
G01X9330113Y629013D01*
G01X9335955Y600311D01*
G01X9347385Y577451D01*
G01X9358815Y560433D01*
G01X9370245Y549003D01*
G01X9452287Y709023D02*
G01X9435269Y703181D01*
G01X9423839Y686163D01*
G01X9417997Y657461D01*
G01X9417997Y640443D01*
G01X9423839Y611741D01*
G01X9435269Y594723D01*
G01X9452287Y588881D01*
G01X9463717Y588881D01*
G01X9480989Y594723D01*
G01X9492419Y611741D01*
G01X9498007Y640443D01*
G01X9498007Y657461D01*
G01X9492419Y686163D01*
G01X9480989Y703181D01*
G01X9463717Y709023D01*
G01X9452287Y709023D01*
G01X9551601Y617583D02*
G01X9545759Y611741D01*
G01X9551601Y606153D01*
G01X9557189Y611741D01*
G01X9551601Y617583D01*
G01X9616371Y709023D02*
G01X9679363Y709023D01*
G01X9645073Y663303D01*
G01X9662091Y663303D01*
G01X9673521Y657461D01*
G01X9679363Y651873D01*
G01X9684951Y634601D01*
G01X9684951Y623171D01*
G01X9679363Y606153D01*
G01X9667933Y594723D01*
G01X9650661Y588881D01*
G01X9633643Y588881D01*
G01X9616371Y594723D01*
G01X9610783Y600311D01*
G01X9604941Y611741D01*
G01X9766993Y709023D02*
G01X9749975Y703181D01*
G01X9738545Y686163D01*
G01X9732703Y657461D01*
G01X9732703Y640443D01*
G01X9738545Y611741D01*
G01X9749975Y594723D01*
G01X9766993Y588881D01*
G01X9778423Y588881D01*
G01X9795695Y594723D01*
G01X9807125Y611741D01*
G01X9812713Y640443D01*
G01X9812713Y657461D01*
G01X9807125Y686163D01*
G01X9795695Y703181D01*
G01X9778423Y709023D01*
G01X9766993Y709023D01*
G01X9929045Y709023D02*
G01X9871895Y709023D01*
G01X9866307Y657461D01*
G01X9871895Y663303D01*
G01X9889167Y668891D01*
G01X9906185Y668891D01*
G01X9923457Y663303D01*
G01X9934887Y651873D01*
G01X9940475Y634601D01*
G01X9940475Y623171D01*
G01X9934887Y606153D01*
G01X9923457Y594723D01*
G01X9906185Y588881D01*
G01X9889167Y588881D01*
G01X9871895Y594723D01*
G01X9866307Y600311D01*
G01X9860465Y611741D01*
G01X9988227Y668891D02*
G01X9988227Y588881D01*
G01X9988227Y646031D02*
G01X10005499Y663303D01*
G01X10016929Y668891D01*
G01X10033947Y668891D01*
G01X10045377Y663303D01*
G01X10051219Y646031D01*
G01X10051219Y588881D01*
G01X10051219Y646031D02*
G01X10068237Y663303D01*
G01X10079667Y668891D01*
G01X10096939Y668891D01*
G01X10108369Y663303D01*
G01X10113957Y646031D01*
G01X10113957Y588881D01*
G01X10161709Y668891D02*
G01X10161709Y588881D01*
G01X10161709Y646031D02*
G01X10178981Y663303D01*
G01X10190411Y668891D01*
G01X10207429Y668891D01*
G01X10218859Y663303D01*
G01X10224701Y646031D01*
G01X10224701Y588881D01*
G01X10224701Y646031D02*
G01X10241719Y663303D01*
G01X10253149Y668891D01*
G01X10270421Y668891D01*
G01X10281851Y663303D01*
G01X10287439Y646031D01*
G01X10287439Y588881D01*
G01X10335191Y731883D02*
G01X10346621Y720453D01*
G01X10358051Y703181D01*
G01X10369481Y680321D01*
G01X10375323Y651873D01*
G01X10375323Y629013D01*
G01X10369481Y600311D01*
G01X10358051Y577451D01*
G01X10346621Y560433D01*
G01X10335191Y549003D01*
G01X12449887Y709023D02*
G01X12449887Y588881D01*
G01X12449887Y709023D02*
G01X12501449Y709023D01*
G01X12518467Y703181D01*
G01X12524309Y697593D01*
G01X12529897Y686163D01*
G01X12529897Y668891D01*
G01X12524309Y657461D01*
G01X12518467Y651873D01*
G01X12501449Y646031D01*
G01X12449887Y646031D01*
G01X12617781Y709023D02*
G01X12617781Y588881D01*
G01X12577649Y709023D02*
G01X12657659Y709023D01*
G01X12705411Y709023D02*
G01X12705411Y588881D01*
G01X12785421Y709023D02*
G01X12785421Y588881D01*
G01X12705411Y651873D02*
G01X12785421Y651873D01*
G01X13911294Y709023D02*
G01X13911294Y588881D01*
G01X13911294Y709023D02*
G01X13962856Y709023D01*
G01X13979874Y703181D01*
G01X13985716Y697593D01*
G01X13991304Y686163D01*
G01X13991304Y674733D01*
G01X13985716Y663303D01*
G01X13979874Y657461D01*
G01X13962856Y651873D01*
G01X13911294Y651873D01*
G01X13951426Y651873D02*
G01X13991304Y588881D01*
G01X14067758Y668891D02*
G01X14056328Y663303D01*
G01X14044898Y651873D01*
G01X14039056Y634601D01*
G01X14039056Y623171D01*
G01X14044898Y606153D01*
G01X14056328Y594723D01*
G01X14067758Y588881D01*
G01X14084776Y588881D01*
G01X14096206Y594723D01*
G01X14107636Y606153D01*
G01X14113478Y623171D01*
G01X14113478Y634601D01*
G01X14107636Y651873D01*
G01X14096206Y663303D01*
G01X14084776Y668891D01*
G01X14067758Y668891D01*
G01X14161230Y668891D02*
G01X14161230Y611741D01*
G01X14167072Y594723D01*
G01X14178502Y588881D01*
G01X14195520Y588881D01*
G01X14206950Y594723D01*
G01X14224222Y611741D01*
G01X14224222Y668891D02*
G01X14224222Y588881D01*
G01X14271974Y668891D02*
G01X14271974Y588881D01*
G01X14271974Y646031D02*
G01X14289246Y663303D01*
G01X14300676Y668891D01*
G01X14317694Y668891D01*
G01X14329124Y663303D01*
G01X14334966Y646031D01*
G01X14334966Y588881D01*
G01X14451298Y709023D02*
G01X14451298Y588881D01*
G01X14451298Y651873D02*
G01X14439868Y663303D01*
G01X14428438Y668891D01*
G01X14411420Y668891D01*
G01X14399990Y663303D01*
G01X14388560Y651873D01*
G01X14382718Y634601D01*
G01X14382718Y623171D01*
G01X14388560Y606153D01*
G01X14399990Y594723D01*
G01X14411420Y588881D01*
G01X14428438Y588881D01*
G01X14439868Y594723D01*
G01X14451298Y606153D01*
G01X15342475Y709023D02*
G01X15388195Y588881D01*
G01X15433915Y709023D02*
G01X15388195Y588881D01*
G01X15481667Y709023D02*
G01X15487509Y703181D01*
G01X15493097Y709023D01*
G01X15487509Y714611D01*
G01X15481667Y709023D01*
G01X15487509Y668891D02*
G01X15487509Y588881D01*
G01X15609429Y668891D02*
G01X15609429Y588881D01*
G01X15609429Y651873D02*
G01X15597999Y663303D01*
G01X15586569Y668891D01*
G01X15569551Y668891D01*
G01X15558121Y663303D01*
G01X15546691Y651873D01*
G01X15540849Y634601D01*
G01X15540849Y623171D01*
G01X15546691Y606153D01*
G01X15558121Y594723D01*
G01X15569551Y588881D01*
G01X15586569Y588881D01*
G01X15597999Y594723D01*
G01X15609429Y606153D01*
G01X18971155Y709023D02*
G01X18971155Y588881D01*
G01X18931023Y709023D02*
G01X19011033Y709023D01*
G01X19087487Y668891D02*
G01X19076057Y663303D01*
G01X19064627Y651873D01*
G01X19058785Y634601D01*
G01X19058785Y623171D01*
G01X19064627Y606153D01*
G01X19076057Y594723D01*
G01X19087487Y588881D01*
G01X19104505Y588881D01*
G01X19115935Y594723D01*
G01X19127365Y606153D01*
G01X19133207Y623171D01*
G01X19133207Y634601D01*
G01X19127365Y651873D01*
G01X19115935Y663303D01*
G01X19104505Y668891D01*
G01X19087487Y668891D01*
G01X19180959Y668891D02*
G01X19180959Y549003D01*
G01X19180959Y651873D02*
G01X19192389Y663303D01*
G01X19203819Y668891D01*
G01X19221091Y668891D01*
G01X19232521Y663303D01*
G01X19243951Y651873D01*
G01X19249539Y634601D01*
G01X19249539Y623171D01*
G01X19243951Y606153D01*
G01X19232521Y594723D01*
G01X19221091Y588881D01*
G01X19203819Y588881D01*
G01X19192389Y594723D01*
G01X19180959Y606153D01*
G01X19425307Y709023D02*
G01X19425307Y588881D01*
G01X19425307Y588881D02*
G01X19493887Y588881D01*
G01X19610219Y668891D02*
G01X19610219Y588881D01*
G01X19610219Y651873D02*
G01X19598789Y663303D01*
G01X19587359Y668891D01*
G01X19570341Y668891D01*
G01X19558911Y663303D01*
G01X19547481Y651873D01*
G01X19541639Y634601D01*
G01X19541639Y623171D01*
G01X19547481Y606153D01*
G01X19558911Y594723D01*
G01X19570341Y588881D01*
G01X19587359Y588881D01*
G01X19598789Y594723D01*
G01X19610219Y606153D01*
G01X19663813Y668891D02*
G01X19698103Y588881D01*
G01X19732393Y668891D02*
G01X19698103Y588881D01*
G01X19686673Y566021D01*
G01X19675243Y554591D01*
G01X19663813Y549003D01*
G01X19657971Y549003D01*
G01X19780145Y634601D02*
G01X19848725Y634601D01*
G01X19848725Y646031D01*
G01X19843137Y657461D01*
G01X19837295Y663303D01*
G01X19825865Y668891D01*
G01X19808847Y668891D01*
G01X19797417Y663303D01*
G01X19785987Y651873D01*
G01X19780145Y634601D01*
G01X19780145Y623171D01*
G01X19785987Y606153D01*
G01X19797417Y594723D01*
G01X19808847Y588881D01*
G01X19825865Y588881D01*
G01X19837295Y594723D01*
G01X19848725Y606153D01*
G01X19896477Y668891D02*
G01X19896477Y588881D01*
G01X19896477Y634601D02*
G01X19902319Y651873D01*
G01X19913749Y663303D01*
G01X19925179Y668891D01*
G01X19942197Y668891D01*
G01X19989949Y640443D02*
G01X20092819Y640443D01*
G01X20140571Y709023D02*
G01X20140571Y588881D01*
G01X20140571Y709023D02*
G01X20192133Y709023D01*
G01X20209151Y703181D01*
G01X20214993Y697593D01*
G01X20220581Y686163D01*
G01X20220581Y674733D01*
G01X20214993Y663303D01*
G01X20209151Y657461D01*
G01X20192133Y651873D01*
G01X20140571Y651873D02*
G01X20192133Y651873D01*
G01X20209151Y646031D01*
G01X20214993Y640443D01*
G01X20220581Y629013D01*
G01X20220581Y611741D01*
G01X20214993Y600311D01*
G01X20209151Y594723D01*
G01X20192133Y588881D01*
G01X20140571Y588881D01*
G01X20297035Y668891D02*
G01X20285605Y663303D01*
G01X20274175Y651873D01*
G01X20268333Y634601D01*
G01X20268333Y623171D01*
G01X20274175Y606153D01*
G01X20285605Y594723D01*
G01X20297035Y588881D01*
G01X20314053Y588881D01*
G01X20325483Y594723D01*
G01X20336913Y606153D01*
G01X20342755Y623171D01*
G01X20342755Y634601D01*
G01X20336913Y651873D01*
G01X20325483Y663303D01*
G01X20314053Y668891D01*
G01X20297035Y668891D01*
G01X20407779Y709023D02*
G01X20407779Y611741D01*
G01X20413367Y594723D01*
G01X20424797Y588881D01*
G01X20436227Y588881D01*
G01X20390507Y668891D02*
G01X20430639Y668891D01*
G01X20501251Y709023D02*
G01X20501251Y611741D01*
G01X20506839Y594723D01*
G01X20518269Y588881D01*
G01X20529699Y588881D01*
G01X20483979Y668891D02*
G01X20524111Y668891D01*
G01X20606153Y668891D02*
G01X20594723Y663303D01*
G01X20583293Y651873D01*
G01X20577451Y634601D01*
G01X20577451Y623171D01*
G01X20583293Y606153D01*
G01X20594723Y594723D01*
G01X20606153Y588881D01*
G01X20623171Y588881D01*
G01X20634601Y594723D01*
G01X20646031Y606153D01*
G01X20651873Y623171D01*
G01X20651873Y634601D01*
G01X20646031Y651873D01*
G01X20634601Y663303D01*
G01X20623171Y668891D01*
G01X20606153Y668891D01*
G01X20699625Y668891D02*
G01X20699625Y588881D01*
G01X20699625Y646031D02*
G01X20716897Y663303D01*
G01X20728327Y668891D01*
G01X20745345Y668891D01*
G01X20756775Y663303D01*
G01X20762617Y646031D01*
G01X20762617Y588881D01*
G01X20762617Y646031D02*
G01X20779635Y663303D01*
G01X20791065Y668891D01*
G01X20808337Y668891D01*
G01X20819767Y663303D01*
G01X20825355Y646031D01*
G01X20825355Y588881D01*
G01X21001123Y709023D02*
G01X21001123Y588881D01*
G01X21001123Y588881D02*
G01X21069703Y588881D01*
G01X21186035Y668891D02*
G01X21186035Y588881D01*
G01X21186035Y651873D02*
G01X21174605Y663303D01*
G01X21163175Y668891D01*
G01X21146157Y668891D01*
G01X21134727Y663303D01*
G01X21123297Y651873D01*
G01X21117455Y634601D01*
G01X21117455Y623171D01*
G01X21123297Y606153D01*
G01X21134727Y594723D01*
G01X21146157Y588881D01*
G01X21163175Y588881D01*
G01X21174605Y594723D01*
G01X21186035Y606153D01*
G01X21239629Y668891D02*
G01X21273919Y588881D01*
G01X21308209Y668891D02*
G01X21273919Y588881D01*
G01X21262489Y566021D01*
G01X21251059Y554591D01*
G01X21239629Y549003D01*
G01X21233787Y549003D01*
G01X21355961Y634601D02*
G01X21424541Y634601D01*
G01X21424541Y646031D01*
G01X21418953Y657461D01*
G01X21413111Y663303D01*
G01X21401681Y668891D01*
G01X21384663Y668891D01*
G01X21373233Y663303D01*
G01X21361803Y651873D01*
G01X21355961Y634601D01*
G01X21355961Y623171D01*
G01X21361803Y606153D01*
G01X21373233Y594723D01*
G01X21384663Y588881D01*
G01X21401681Y588881D01*
G01X21413111Y594723D01*
G01X21424541Y606153D01*
G01X21472293Y668891D02*
G01X21472293Y588881D01*
G01X21472293Y634601D02*
G01X21478135Y651873D01*
G01X21489565Y663303D01*
G01X21500995Y668891D01*
G01X21518013Y668891D01*
G01X7244374Y105591D02*
G01X7255804Y111179D01*
G01X7273076Y128451D01*
G01X7273076Y8309D01*
G01X8715687Y128451D02*
G01X8658537Y48441D01*
G01X8744389Y48441D01*
G01X8715687Y128451D02*
G01X8715687Y8309D01*
G01X8803571Y128451D02*
G01X8866563Y128451D01*
G01X8832273Y82731D01*
G01X8849291Y82731D01*
G01X8860721Y76889D01*
G01X8866563Y71301D01*
G01X8872151Y54029D01*
G01X8872151Y42599D01*
G01X8866563Y25581D01*
G01X8855133Y14151D01*
G01X8837861Y8309D01*
G01X8820843Y8309D01*
G01X8803571Y14151D01*
G01X8797983Y19739D01*
G01X8792141Y31169D01*
G01X8925745Y37011D02*
G01X8919903Y31169D01*
G01X8925745Y25581D01*
G01X8931333Y31169D01*
G01X8925745Y37011D01*
G01X8990515Y128451D02*
G01X9053507Y128451D01*
G01X9019217Y82731D01*
G01X9036235Y82731D01*
G01X9047665Y76889D01*
G01X9053507Y71301D01*
G01X9059095Y54029D01*
G01X9059095Y42599D01*
G01X9053507Y25581D01*
G01X9042077Y14151D01*
G01X9024805Y8309D01*
G01X9007787Y8309D01*
G01X8990515Y14151D01*
G01X8984927Y19739D01*
G01X8979085Y31169D01*
G01X9106847Y88319D02*
G01X9169839Y8309D01*
G01X9169839Y88319D02*
G01X9106847Y8309D01*
G01X9274741Y128451D02*
G01X9217591Y48441D01*
G01X9303443Y48441D01*
G01X9274741Y128451D02*
G01X9274741Y8309D01*
G01X9362625Y128451D02*
G01X9425617Y128451D01*
G01X9391327Y82731D01*
G01X9408345Y82731D01*
G01X9419775Y76889D01*
G01X9425617Y71301D01*
G01X9431205Y54029D01*
G01X9431205Y42599D01*
G01X9425617Y25581D01*
G01X9414187Y14151D01*
G01X9396915Y8309D01*
G01X9379897Y8309D01*
G01X9362625Y14151D01*
G01X9357037Y19739D01*
G01X9351195Y31169D01*
G01X9484799Y37011D02*
G01X9478957Y31169D01*
G01X9484799Y25581D01*
G01X9490387Y31169D01*
G01X9484799Y37011D01*
G01X9549569Y128451D02*
G01X9612561Y128451D01*
G01X9578271Y82731D01*
G01X9595289Y82731D01*
G01X9606719Y76889D01*
G01X9612561Y71301D01*
G01X9618149Y54029D01*
G01X9618149Y42599D01*
G01X9612561Y25581D01*
G01X9601131Y14151D01*
G01X9583859Y8309D01*
G01X9566841Y8309D01*
G01X9549569Y14151D01*
G01X9543981Y19739D01*
G01X9538139Y31169D01*
G01X9665901Y88319D02*
G01X9665901Y8309D01*
G01X9665901Y65459D02*
G01X9683173Y82731D01*
G01X9694603Y88319D01*
G01X9711621Y88319D01*
G01X9723051Y82731D01*
G01X9728893Y65459D01*
G01X9728893Y8309D01*
G01X9728893Y65459D02*
G01X9745911Y82731D01*
G01X9757341Y88319D01*
G01X9774613Y88319D01*
G01X9786043Y82731D01*
G01X9791631Y65459D01*
G01X9791631Y8309D01*
G01X9839383Y128451D02*
G01X9845225Y122609D01*
G01X9850813Y128451D01*
G01X9845225Y134039D01*
G01X9839383Y128451D01*
G01X9845225Y88319D02*
G01X9845225Y8309D01*
G01X9898565Y128451D02*
G01X9898565Y8309D01*
G01X9986449Y151311D02*
G01X9975019Y139881D01*
G01X9963589Y122609D01*
G01X9952159Y99749D01*
G01X9946317Y71301D01*
G01X9946317Y48441D01*
G01X9952159Y19739D01*
G01X9963589Y-3121D01*
G01X9975019Y-20139D01*
G01X9986449Y-31569D01*
G01X10034201Y105591D02*
G01X10045631Y111179D01*
G01X10062903Y128451D01*
G01X10062903Y8309D01*
G01X10116497Y37011D02*
G01X10110655Y31169D01*
G01X10116497Y25581D01*
G01X10122085Y31169D01*
G01X10116497Y37011D01*
G01X10169837Y105591D02*
G01X10181267Y111179D01*
G01X10198539Y128451D01*
G01X10198539Y8309D01*
G01X10280581Y128451D02*
G01X10263563Y122609D01*
G01X10252133Y105591D01*
G01X10246291Y76889D01*
G01X10246291Y59871D01*
G01X10252133Y31169D01*
G01X10263563Y14151D01*
G01X10280581Y8309D01*
G01X10292011Y8309D01*
G01X10309283Y14151D01*
G01X10320713Y31169D01*
G01X10326301Y59871D01*
G01X10326301Y76889D01*
G01X10320713Y105591D01*
G01X10309283Y122609D01*
G01X10292011Y128451D01*
G01X10280581Y128451D01*
G01X10408343Y128451D02*
G01X10391325Y122609D01*
G01X10379895Y105591D01*
G01X10374053Y76889D01*
G01X10374053Y59871D01*
G01X10379895Y31169D01*
G01X10391325Y14151D01*
G01X10408343Y8309D01*
G01X10419773Y8309D01*
G01X10437045Y14151D01*
G01X10448475Y31169D01*
G01X10454063Y59871D01*
G01X10454063Y76889D01*
G01X10448475Y105591D01*
G01X10437045Y122609D01*
G01X10419773Y128451D01*
G01X10408343Y128451D01*
G01X10501815Y88319D02*
G01X10564807Y8309D01*
G01X10564807Y88319D02*
G01X10501815Y8309D01*
G01X10612559Y105591D02*
G01X10623989Y111179D01*
G01X10641261Y128451D01*
G01X10641261Y8309D01*
G01X10694855Y37011D02*
G01X10689013Y31169D01*
G01X10694855Y25581D01*
G01X10700443Y31169D01*
G01X10694855Y37011D01*
G01X10748195Y105591D02*
G01X10759625Y111179D01*
G01X10776897Y128451D01*
G01X10776897Y8309D01*
G01X10858939Y128451D02*
G01X10841921Y122609D01*
G01X10830491Y105591D01*
G01X10824649Y76889D01*
G01X10824649Y59871D01*
G01X10830491Y31169D01*
G01X10841921Y14151D01*
G01X10858939Y8309D01*
G01X10870369Y8309D01*
G01X10887641Y14151D01*
G01X10899071Y31169D01*
G01X10904659Y59871D01*
G01X10904659Y76889D01*
G01X10899071Y105591D01*
G01X10887641Y122609D01*
G01X10870369Y128451D01*
G01X10858939Y128451D01*
G01X10986701Y128451D02*
G01X10969683Y122609D01*
G01X10958253Y105591D01*
G01X10952411Y76889D01*
G01X10952411Y59871D01*
G01X10958253Y31169D01*
G01X10969683Y14151D01*
G01X10986701Y8309D01*
G01X10998131Y8309D01*
G01X11015403Y14151D01*
G01X11026833Y31169D01*
G01X11032421Y59871D01*
G01X11032421Y76889D01*
G01X11026833Y105591D01*
G01X11015403Y122609D01*
G01X10998131Y128451D01*
G01X10986701Y128451D01*
G01X11080173Y88319D02*
G01X11080173Y8309D01*
G01X11080173Y65459D02*
G01X11097445Y82731D01*
G01X11108875Y88319D01*
G01X11125893Y88319D01*
G01X11137323Y82731D01*
G01X11143165Y65459D01*
G01X11143165Y8309D01*
G01X11143165Y65459D02*
G01X11160183Y82731D01*
G01X11171613Y88319D01*
G01X11188885Y88319D01*
G01X11200315Y82731D01*
G01X11205903Y65459D01*
G01X11205903Y8309D01*
G01X11253655Y88319D02*
G01X11253655Y8309D01*
G01X11253655Y65459D02*
G01X11270927Y82731D01*
G01X11282357Y88319D01*
G01X11299375Y88319D01*
G01X11310805Y82731D01*
G01X11316647Y65459D01*
G01X11316647Y8309D01*
G01X11316647Y65459D02*
G01X11333665Y82731D01*
G01X11345095Y88319D01*
G01X11362367Y88319D01*
G01X11373797Y82731D01*
G01X11379385Y65459D01*
G01X11379385Y8309D01*
G01X11427137Y151311D02*
G01X11438567Y139881D01*
G01X11449997Y122609D01*
G01X11461427Y99749D01*
G01X11467269Y71301D01*
G01X11467269Y48441D01*
G01X11461427Y19739D01*
G01X11449997Y-3121D01*
G01X11438567Y-20139D01*
G01X11427137Y-31569D01*
G01X12449887Y128451D02*
G01X12449887Y8309D01*
G01X12449887Y128451D02*
G01X12501449Y128451D01*
G01X12518467Y122609D01*
G01X12524309Y117021D01*
G01X12529897Y105591D01*
G01X12529897Y88319D01*
G01X12524309Y76889D01*
G01X12518467Y71301D01*
G01X12501449Y65459D01*
G01X12449887Y65459D01*
G01X12617781Y128451D02*
G01X12617781Y8309D01*
G01X12577649Y128451D02*
G01X12657659Y128451D01*
G01X12705411Y128451D02*
G01X12705411Y8309D01*
G01X12785421Y128451D02*
G01X12785421Y8309D01*
G01X12705411Y71301D02*
G01X12785421Y71301D01*
G01X13911294Y128451D02*
G01X13911294Y8309D01*
G01X13911294Y128451D02*
G01X13962856Y128451D01*
G01X13979874Y122609D01*
G01X13985716Y117021D01*
G01X13991304Y105591D01*
G01X13991304Y94161D01*
G01X13985716Y82731D01*
G01X13979874Y76889D01*
G01X13962856Y71301D01*
G01X13911294Y71301D01*
G01X13951426Y71301D02*
G01X13991304Y8309D01*
G01X14067758Y88319D02*
G01X14056328Y82731D01*
G01X14044898Y71301D01*
G01X14039056Y54029D01*
G01X14039056Y42599D01*
G01X14044898Y25581D01*
G01X14056328Y14151D01*
G01X14067758Y8309D01*
G01X14084776Y8309D01*
G01X14096206Y14151D01*
G01X14107636Y25581D01*
G01X14113478Y42599D01*
G01X14113478Y54029D01*
G01X14107636Y71301D01*
G01X14096206Y82731D01*
G01X14084776Y88319D01*
G01X14067758Y88319D01*
G01X14161230Y88319D02*
G01X14161230Y31169D01*
G01X14167072Y14151D01*
G01X14178502Y8309D01*
G01X14195520Y8309D01*
G01X14206950Y14151D01*
G01X14224222Y31169D01*
G01X14224222Y88319D02*
G01X14224222Y8309D01*
G01X14271974Y88319D02*
G01X14271974Y8309D01*
G01X14271974Y65459D02*
G01X14289246Y82731D01*
G01X14300676Y88319D01*
G01X14317694Y88319D01*
G01X14329124Y82731D01*
G01X14334966Y65459D01*
G01X14334966Y8309D01*
G01X14451298Y128451D02*
G01X14451298Y8309D01*
G01X14451298Y71301D02*
G01X14439868Y82731D01*
G01X14428438Y88319D01*
G01X14411420Y88319D01*
G01X14399990Y82731D01*
G01X14388560Y71301D01*
G01X14382718Y54029D01*
G01X14382718Y42599D01*
G01X14388560Y25581D01*
G01X14399990Y14151D01*
G01X14411420Y8309D01*
G01X14428438Y8309D01*
G01X14439868Y14151D01*
G01X14451298Y25581D01*
G01X15342475Y128451D02*
G01X15342475Y8309D01*
G01X15342475Y128451D02*
G01X15394037Y128451D01*
G01X15411055Y122609D01*
G01X15416897Y117021D01*
G01X15422485Y105591D01*
G01X15422485Y88319D01*
G01X15416897Y76889D01*
G01X15411055Y71301D01*
G01X15394037Y65459D01*
G01X15342475Y65459D01*
G01X15538817Y88319D02*
G01X15538817Y8309D01*
G01X15538817Y71301D02*
G01X15527387Y82731D01*
G01X15515957Y88319D01*
G01X15498939Y88319D01*
G01X15487509Y82731D01*
G01X15476079Y71301D01*
G01X15470237Y54029D01*
G01X15470237Y42599D01*
G01X15476079Y25581D01*
G01X15487509Y14151D01*
G01X15498939Y8309D01*
G01X15515957Y8309D01*
G01X15527387Y14151D01*
G01X15538817Y25581D01*
G01X15655149Y128451D02*
G01X15655149Y8309D01*
G01X15655149Y71301D02*
G01X15643719Y82731D01*
G01X15632289Y88319D01*
G01X15615271Y88319D01*
G01X15603841Y82731D01*
G01X15592411Y71301D01*
G01X15586569Y54029D01*
G01X15586569Y42599D01*
G01X15592411Y25581D01*
G01X15603841Y14151D01*
G01X15615271Y8309D01*
G01X15632289Y8309D01*
G01X15643719Y14151D01*
G01X15655149Y25581D01*
G01X17011654Y128451D02*
G01X17011654Y8309D01*
G01X17011654Y128451D02*
G01X17063216Y128451D01*
G01X17080234Y122609D01*
G01X17086076Y117021D01*
G01X17091664Y105591D01*
G01X17091664Y94161D01*
G01X17086076Y82731D01*
G01X17080234Y76889D01*
G01X17063216Y71301D01*
G01X17011654Y71301D01*
G01X17051786Y71301D02*
G01X17091664Y8309D01*
G01X17168118Y88319D02*
G01X17156688Y82731D01*
G01X17145258Y71301D01*
G01X17139416Y54029D01*
G01X17139416Y42599D01*
G01X17145258Y25581D01*
G01X17156688Y14151D01*
G01X17168118Y8309D01*
G01X17185136Y8309D01*
G01X17196566Y14151D01*
G01X17207996Y25581D01*
G01X17213838Y42599D01*
G01X17213838Y54029D01*
G01X17207996Y71301D01*
G01X17196566Y82731D01*
G01X17185136Y88319D01*
G01X17168118Y88319D01*
G01X17261590Y88319D02*
G01X17261590Y31169D01*
G01X17267432Y14151D01*
G01X17278862Y8309D01*
G01X17295880Y8309D01*
G01X17307310Y14151D01*
G01X17324582Y31169D01*
G01X17324582Y88319D02*
G01X17324582Y8309D01*
G01X17372334Y88319D02*
G01X17372334Y8309D01*
G01X17372334Y65459D02*
G01X17389606Y82731D01*
G01X17401036Y88319D01*
G01X17418054Y88319D01*
G01X17429484Y82731D01*
G01X17435326Y65459D01*
G01X17435326Y8309D01*
G01X17551658Y128451D02*
G01X17551658Y8309D01*
G01X17551658Y71301D02*
G01X17540228Y82731D01*
G01X17528798Y88319D01*
G01X17511780Y88319D01*
G01X17500350Y82731D01*
G01X17488920Y71301D01*
G01X17483078Y54029D01*
G01X17483078Y42599D01*
G01X17488920Y25581D01*
G01X17500350Y14151D01*
G01X17511780Y8309D01*
G01X17528798Y8309D01*
G01X17540228Y14151D01*
G01X17551658Y25581D01*
G01X18971155Y128451D02*
G01X18971155Y8309D01*
G01X18931023Y128451D02*
G01X19011033Y128451D01*
G01X19087487Y88319D02*
G01X19076057Y82731D01*
G01X19064627Y71301D01*
G01X19058785Y54029D01*
G01X19058785Y42599D01*
G01X19064627Y25581D01*
G01X19076057Y14151D01*
G01X19087487Y8309D01*
G01X19104505Y8309D01*
G01X19115935Y14151D01*
G01X19127365Y25581D01*
G01X19133207Y42599D01*
G01X19133207Y54029D01*
G01X19127365Y71301D01*
G01X19115935Y82731D01*
G01X19104505Y88319D01*
G01X19087487Y88319D01*
G01X19180959Y88319D02*
G01X19180959Y-31569D01*
G01X19180959Y71301D02*
G01X19192389Y82731D01*
G01X19203819Y88319D01*
G01X19221091Y88319D01*
G01X19232521Y82731D01*
G01X19243951Y71301D01*
G01X19249539Y54029D01*
G01X19249539Y42599D01*
G01X19243951Y25581D01*
G01X19232521Y14151D01*
G01X19221091Y8309D01*
G01X19203819Y8309D01*
G01X19192389Y14151D01*
G01X19180959Y25581D01*
G01X19425307Y128451D02*
G01X19425307Y8309D01*
G01X19425307Y8309D02*
G01X19493887Y8309D01*
G01X19610219Y88319D02*
G01X19610219Y8309D01*
G01X19610219Y71301D02*
G01X19598789Y82731D01*
G01X19587359Y88319D01*
G01X19570341Y88319D01*
G01X19558911Y82731D01*
G01X19547481Y71301D01*
G01X19541639Y54029D01*
G01X19541639Y42599D01*
G01X19547481Y25581D01*
G01X19558911Y14151D01*
G01X19570341Y8309D01*
G01X19587359Y8309D01*
G01X19598789Y14151D01*
G01X19610219Y25581D01*
G01X19663813Y88319D02*
G01X19698103Y8309D01*
G01X19732393Y88319D02*
G01X19698103Y8309D01*
G01X19686673Y-14551D01*
G01X19675243Y-25981D01*
G01X19663813Y-31569D01*
G01X19657971Y-31569D01*
G01X19780145Y54029D02*
G01X19848725Y54029D01*
G01X19848725Y65459D01*
G01X19843137Y76889D01*
G01X19837295Y82731D01*
G01X19825865Y88319D01*
G01X19808847Y88319D01*
G01X19797417Y82731D01*
G01X19785987Y71301D01*
G01X19780145Y54029D01*
G01X19780145Y42599D01*
G01X19785987Y25581D01*
G01X19797417Y14151D01*
G01X19808847Y8309D01*
G01X19825865Y8309D01*
G01X19837295Y14151D01*
G01X19848725Y25581D01*
G01X19896477Y88319D02*
G01X19896477Y8309D01*
G01X19896477Y54029D02*
G01X19902319Y71301D01*
G01X19913749Y82731D01*
G01X19925179Y88319D01*
G01X19942197Y88319D01*
G01X19989949Y59871D02*
G01X20092819Y59871D01*
G01X20140571Y128451D02*
G01X20140571Y8309D01*
G01X20140571Y128451D02*
G01X20192133Y128451D01*
G01X20209151Y122609D01*
G01X20214993Y117021D01*
G01X20220581Y105591D01*
G01X20220581Y94161D01*
G01X20214993Y82731D01*
G01X20209151Y76889D01*
G01X20192133Y71301D01*
G01X20140571Y71301D02*
G01X20192133Y71301D01*
G01X20209151Y65459D01*
G01X20214993Y59871D01*
G01X20220581Y48441D01*
G01X20220581Y31169D01*
G01X20214993Y19739D01*
G01X20209151Y14151D01*
G01X20192133Y8309D01*
G01X20140571Y8309D01*
G01X20297035Y88319D02*
G01X20285605Y82731D01*
G01X20274175Y71301D01*
G01X20268333Y54029D01*
G01X20268333Y42599D01*
G01X20274175Y25581D01*
G01X20285605Y14151D01*
G01X20297035Y8309D01*
G01X20314053Y8309D01*
G01X20325483Y14151D01*
G01X20336913Y25581D01*
G01X20342755Y42599D01*
G01X20342755Y54029D01*
G01X20336913Y71301D01*
G01X20325483Y82731D01*
G01X20314053Y88319D01*
G01X20297035Y88319D01*
G01X20407779Y128451D02*
G01X20407779Y31169D01*
G01X20413367Y14151D01*
G01X20424797Y8309D01*
G01X20436227Y8309D01*
G01X20390507Y88319D02*
G01X20430639Y88319D01*
G01X20501251Y128451D02*
G01X20501251Y31169D01*
G01X20506839Y14151D01*
G01X20518269Y8309D01*
G01X20529699Y8309D01*
G01X20483979Y88319D02*
G01X20524111Y88319D01*
G01X20606153Y88319D02*
G01X20594723Y82731D01*
G01X20583293Y71301D01*
G01X20577451Y54029D01*
G01X20577451Y42599D01*
G01X20583293Y25581D01*
G01X20594723Y14151D01*
G01X20606153Y8309D01*
G01X20623171Y8309D01*
G01X20634601Y14151D01*
G01X20646031Y25581D01*
G01X20651873Y42599D01*
G01X20651873Y54029D01*
G01X20646031Y71301D01*
G01X20634601Y82731D01*
G01X20623171Y88319D01*
G01X20606153Y88319D01*
G01X20699625Y88319D02*
G01X20699625Y8309D01*
G01X20699625Y65459D02*
G01X20716897Y82731D01*
G01X20728327Y88319D01*
G01X20745345Y88319D01*
G01X20756775Y82731D01*
G01X20762617Y65459D01*
G01X20762617Y8309D01*
G01X20762617Y65459D02*
G01X20779635Y82731D01*
G01X20791065Y88319D01*
G01X20808337Y88319D01*
G01X20819767Y82731D01*
G01X20825355Y65459D01*
G01X20825355Y8309D01*
G01X21001123Y128451D02*
G01X21001123Y8309D01*
G01X21001123Y8309D02*
G01X21069703Y8309D01*
G01X21186035Y88319D02*
G01X21186035Y8309D01*
G01X21186035Y71301D02*
G01X21174605Y82731D01*
G01X21163175Y88319D01*
G01X21146157Y88319D01*
G01X21134727Y82731D01*
G01X21123297Y71301D01*
G01X21117455Y54029D01*
G01X21117455Y42599D01*
G01X21123297Y25581D01*
G01X21134727Y14151D01*
G01X21146157Y8309D01*
G01X21163175Y8309D01*
G01X21174605Y14151D01*
G01X21186035Y25581D01*
G01X21239629Y88319D02*
G01X21273919Y8309D01*
G01X21308209Y88319D02*
G01X21273919Y8309D01*
G01X21262489Y-14551D01*
G01X21251059Y-25981D01*
G01X21239629Y-31569D01*
G01X21233787Y-31569D01*
G01X21355961Y54029D02*
G01X21424541Y54029D01*
G01X21424541Y65459D01*
G01X21418953Y76889D01*
G01X21413111Y82731D01*
G01X21401681Y88319D01*
G01X21384663Y88319D01*
G01X21373233Y82731D01*
G01X21361803Y71301D01*
G01X21355961Y54029D01*
G01X21355961Y42599D01*
G01X21361803Y25581D01*
G01X21373233Y14151D01*
G01X21384663Y8309D01*
G01X21401681Y8309D01*
G01X21413111Y14151D01*
G01X21424541Y25581D01*
G01X21472293Y88319D02*
G01X21472293Y8309D01*
G01X21472293Y54029D02*
G01X21478135Y71301D01*
G01X21489565Y82731D01*
G01X21500995Y88319D01*
G01X21518013Y88319D01*
G01X7255804Y-452120D02*
G01X7318796Y-452120D01*
G01X7284506Y-497840D01*
G01X7301524Y-497840D01*
G01X7312954Y-503682D01*
G01X7318796Y-509270D01*
G01X7324384Y-526542D01*
G01X7324384Y-537972D01*
G01X7318796Y-554990D01*
G01X7307366Y-566420D01*
G01X7290094Y-572262D01*
G01X7273076Y-572262D01*
G01X7255804Y-566420D01*
G01X7250216Y-560832D01*
G01X7244374Y-549402D01*
G01X8669967Y-452120D02*
G01X8732959Y-452120D01*
G01X8698669Y-497840D01*
G01X8715687Y-497840D01*
G01X8727117Y-503682D01*
G01X8732959Y-509270D01*
G01X8738547Y-526542D01*
G01X8738547Y-537972D01*
G01X8732959Y-554990D01*
G01X8721529Y-566420D01*
G01X8704257Y-572262D01*
G01X8687239Y-572262D01*
G01X8669967Y-566420D01*
G01X8664379Y-560832D01*
G01X8658537Y-549402D01*
G01X8860721Y-492252D02*
G01X8854879Y-509270D01*
G01X8843449Y-520700D01*
G01X8826431Y-526542D01*
G01X8820589Y-526542D01*
G01X8803571Y-520700D01*
G01X8792141Y-509270D01*
G01X8786299Y-492252D01*
G01X8786299Y-486410D01*
G01X8792141Y-469392D01*
G01X8803571Y-457962D01*
G01X8820589Y-452120D01*
G01X8826431Y-452120D01*
G01X8843449Y-457962D01*
G01X8854879Y-469392D01*
G01X8860721Y-492252D01*
G01X8860721Y-520700D01*
G01X8854879Y-549402D01*
G01X8843449Y-566420D01*
G01X8826431Y-572262D01*
G01X8815001Y-572262D01*
G01X8797729Y-566420D01*
G01X8792141Y-554990D01*
G01X8914315Y-543560D02*
G01X8908473Y-549402D01*
G01X8914315Y-554990D01*
G01X8919903Y-549402D01*
G01X8914315Y-543560D01*
G01X9024805Y-452120D02*
G01X8967655Y-532130D01*
G01X9053507Y-532130D01*
G01X9024805Y-452120D02*
G01X9024805Y-572262D01*
G01X9101259Y-492252D02*
G01X9164251Y-572262D01*
G01X9164251Y-492252D02*
G01X9101259Y-572262D01*
G01X9223433Y-452120D02*
G01X9286425Y-452120D01*
G01X9252135Y-497840D01*
G01X9269153Y-497840D01*
G01X9280583Y-503682D01*
G01X9286425Y-509270D01*
G01X9292013Y-526542D01*
G01X9292013Y-537972D01*
G01X9286425Y-554990D01*
G01X9274995Y-566420D01*
G01X9257723Y-572262D01*
G01X9240705Y-572262D01*
G01X9223433Y-566420D01*
G01X9217845Y-560832D01*
G01X9212003Y-549402D01*
G01X9414187Y-492252D02*
G01X9408345Y-509270D01*
G01X9396915Y-520700D01*
G01X9379897Y-526542D01*
G01X9374055Y-526542D01*
G01X9357037Y-520700D01*
G01X9345607Y-509270D01*
G01X9339765Y-492252D01*
G01X9339765Y-486410D01*
G01X9345607Y-469392D01*
G01X9357037Y-457962D01*
G01X9374055Y-452120D01*
G01X9379897Y-452120D01*
G01X9396915Y-457962D01*
G01X9408345Y-469392D01*
G01X9414187Y-492252D01*
G01X9414187Y-520700D01*
G01X9408345Y-549402D01*
G01X9396915Y-566420D01*
G01X9379897Y-572262D01*
G01X9368467Y-572262D01*
G01X9351195Y-566420D01*
G01X9345607Y-554990D01*
G01X9467781Y-543560D02*
G01X9461939Y-549402D01*
G01X9467781Y-554990D01*
G01X9473369Y-549402D01*
G01X9467781Y-543560D01*
G01X9578271Y-452120D02*
G01X9521121Y-532130D01*
G01X9606973Y-532130D01*
G01X9578271Y-452120D02*
G01X9578271Y-572262D01*
G01X9654725Y-492252D02*
G01X9654725Y-572262D01*
G01X9654725Y-515112D02*
G01X9671997Y-497840D01*
G01X9683427Y-492252D01*
G01X9700445Y-492252D01*
G01X9711875Y-497840D01*
G01X9717717Y-515112D01*
G01X9717717Y-572262D01*
G01X9717717Y-515112D02*
G01X9734735Y-497840D01*
G01X9746165Y-492252D01*
G01X9763437Y-492252D01*
G01X9774867Y-497840D01*
G01X9780455Y-515112D01*
G01X9780455Y-572262D01*
G01X9828207Y-452120D02*
G01X9834049Y-457962D01*
G01X9839637Y-452120D01*
G01X9834049Y-446532D01*
G01X9828207Y-452120D01*
G01X9834049Y-492252D02*
G01X9834049Y-572262D01*
G01X9887389Y-452120D02*
G01X9887389Y-572262D01*
G01X9975273Y-429260D02*
G01X9963843Y-440690D01*
G01X9952413Y-457962D01*
G01X9940983Y-480822D01*
G01X9935141Y-509270D01*
G01X9935141Y-532130D01*
G01X9940983Y-560832D01*
G01X9952413Y-583692D01*
G01X9963843Y-600710D01*
G01X9975273Y-612140D01*
G01X10023025Y-474980D02*
G01X10034455Y-469392D01*
G01X10051727Y-452120D01*
G01X10051727Y-572262D01*
G01X10105321Y-543560D02*
G01X10099479Y-549402D01*
G01X10105321Y-554990D01*
G01X10110909Y-549402D01*
G01X10105321Y-543560D01*
G01X10192951Y-452120D02*
G01X10175933Y-457962D01*
G01X10164503Y-474980D01*
G01X10158661Y-503682D01*
G01X10158661Y-520700D01*
G01X10164503Y-549402D01*
G01X10175933Y-566420D01*
G01X10192951Y-572262D01*
G01X10204381Y-572262D01*
G01X10221653Y-566420D01*
G01X10233083Y-549402D01*
G01X10238671Y-520700D01*
G01X10238671Y-503682D01*
G01X10233083Y-474980D01*
G01X10221653Y-457962D01*
G01X10204381Y-452120D01*
G01X10192951Y-452120D01*
G01X10320713Y-452120D02*
G01X10303695Y-457962D01*
G01X10292265Y-474980D01*
G01X10286423Y-503682D01*
G01X10286423Y-520700D01*
G01X10292265Y-549402D01*
G01X10303695Y-566420D01*
G01X10320713Y-572262D01*
G01X10332143Y-572262D01*
G01X10349415Y-566420D01*
G01X10360845Y-549402D01*
G01X10366433Y-520700D01*
G01X10366433Y-503682D01*
G01X10360845Y-474980D01*
G01X10349415Y-457962D01*
G01X10332143Y-452120D01*
G01X10320713Y-452120D01*
G01X10448475Y-452120D02*
G01X10431457Y-457962D01*
G01X10420027Y-474980D01*
G01X10414185Y-503682D01*
G01X10414185Y-520700D01*
G01X10420027Y-549402D01*
G01X10431457Y-566420D01*
G01X10448475Y-572262D01*
G01X10459905Y-572262D01*
G01X10477177Y-566420D01*
G01X10488607Y-549402D01*
G01X10494195Y-520700D01*
G01X10494195Y-503682D01*
G01X10488607Y-474980D01*
G01X10477177Y-457962D01*
G01X10459905Y-452120D01*
G01X10448475Y-452120D01*
G01X10541947Y-492252D02*
G01X10604939Y-572262D01*
G01X10604939Y-492252D02*
G01X10541947Y-572262D01*
G01X10652691Y-474980D02*
G01X10664121Y-469392D01*
G01X10681393Y-452120D01*
G01X10681393Y-572262D01*
G01X10734987Y-543560D02*
G01X10729145Y-549402D01*
G01X10734987Y-554990D01*
G01X10740575Y-549402D01*
G01X10734987Y-543560D01*
G01X10822617Y-452120D02*
G01X10805599Y-457962D01*
G01X10794169Y-474980D01*
G01X10788327Y-503682D01*
G01X10788327Y-520700D01*
G01X10794169Y-549402D01*
G01X10805599Y-566420D01*
G01X10822617Y-572262D01*
G01X10834047Y-572262D01*
G01X10851319Y-566420D01*
G01X10862749Y-549402D01*
G01X10868337Y-520700D01*
G01X10868337Y-503682D01*
G01X10862749Y-474980D01*
G01X10851319Y-457962D01*
G01X10834047Y-452120D01*
G01X10822617Y-452120D01*
G01X10950379Y-452120D02*
G01X10933361Y-457962D01*
G01X10921931Y-474980D01*
G01X10916089Y-503682D01*
G01X10916089Y-520700D01*
G01X10921931Y-549402D01*
G01X10933361Y-566420D01*
G01X10950379Y-572262D01*
G01X10961809Y-572262D01*
G01X10979081Y-566420D01*
G01X10990511Y-549402D01*
G01X10996099Y-520700D01*
G01X10996099Y-503682D01*
G01X10990511Y-474980D01*
G01X10979081Y-457962D01*
G01X10961809Y-452120D01*
G01X10950379Y-452120D01*
G01X11078141Y-452120D02*
G01X11061123Y-457962D01*
G01X11049693Y-474980D01*
G01X11043851Y-503682D01*
G01X11043851Y-520700D01*
G01X11049693Y-549402D01*
G01X11061123Y-566420D01*
G01X11078141Y-572262D01*
G01X11089571Y-572262D01*
G01X11106843Y-566420D01*
G01X11118273Y-549402D01*
G01X11123861Y-520700D01*
G01X11123861Y-503682D01*
G01X11118273Y-474980D01*
G01X11106843Y-457962D01*
G01X11089571Y-452120D01*
G01X11078141Y-452120D01*
G01X11171613Y-492252D02*
G01X11171613Y-572262D01*
G01X11171613Y-515112D02*
G01X11188885Y-497840D01*
G01X11200315Y-492252D01*
G01X11217333Y-492252D01*
G01X11228763Y-497840D01*
G01X11234605Y-515112D01*
G01X11234605Y-572262D01*
G01X11234605Y-515112D02*
G01X11251623Y-497840D01*
G01X11263053Y-492252D01*
G01X11280325Y-492252D01*
G01X11291755Y-497840D01*
G01X11297343Y-515112D01*
G01X11297343Y-572262D01*
G01X11345095Y-492252D02*
G01X11345095Y-572262D01*
G01X11345095Y-515112D02*
G01X11362367Y-497840D01*
G01X11373797Y-492252D01*
G01X11390815Y-492252D01*
G01X11402245Y-497840D01*
G01X11408087Y-515112D01*
G01X11408087Y-572262D01*
G01X11408087Y-515112D02*
G01X11425105Y-497840D01*
G01X11436535Y-492252D01*
G01X11453807Y-492252D01*
G01X11465237Y-497840D01*
G01X11470825Y-515112D01*
G01X11470825Y-572262D01*
G01X11518577Y-429260D02*
G01X11530007Y-440690D01*
G01X11541437Y-457962D01*
G01X11552867Y-480822D01*
G01X11558709Y-509270D01*
G01X11558709Y-532130D01*
G01X11552867Y-560832D01*
G01X11541437Y-583692D01*
G01X11530007Y-600710D01*
G01X11518577Y-612140D01*
G01X12449887Y-452120D02*
G01X12449887Y-572262D01*
G01X12449887Y-452120D02*
G01X12501449Y-452120D01*
G01X12518467Y-457962D01*
G01X12524309Y-463550D01*
G01X12529897Y-474980D01*
G01X12529897Y-492252D01*
G01X12524309Y-503682D01*
G01X12518467Y-509270D01*
G01X12501449Y-515112D01*
G01X12449887Y-515112D01*
G01X12617781Y-452120D02*
G01X12617781Y-572262D01*
G01X12577649Y-452120D02*
G01X12657659Y-452120D01*
G01X12705411Y-452120D02*
G01X12705411Y-572262D01*
G01X12785421Y-452120D02*
G01X12785421Y-572262D01*
G01X12705411Y-509270D02*
G01X12785421Y-509270D01*
G01X13911294Y-452120D02*
G01X13911294Y-572262D01*
G01X13911294Y-452120D02*
G01X13962856Y-452120D01*
G01X13979874Y-457962D01*
G01X13985716Y-463550D01*
G01X13991304Y-474980D01*
G01X13991304Y-486410D01*
G01X13985716Y-497840D01*
G01X13979874Y-503682D01*
G01X13962856Y-509270D01*
G01X13911294Y-509270D01*
G01X13951426Y-509270D02*
G01X13991304Y-572262D01*
G01X14067758Y-492252D02*
G01X14056328Y-497840D01*
G01X14044898Y-509270D01*
G01X14039056Y-526542D01*
G01X14039056Y-537972D01*
G01X14044898Y-554990D01*
G01X14056328Y-566420D01*
G01X14067758Y-572262D01*
G01X14084776Y-572262D01*
G01X14096206Y-566420D01*
G01X14107636Y-554990D01*
G01X14113478Y-537972D01*
G01X14113478Y-526542D01*
G01X14107636Y-509270D01*
G01X14096206Y-497840D01*
G01X14084776Y-492252D01*
G01X14067758Y-492252D01*
G01X14161230Y-492252D02*
G01X14161230Y-549402D01*
G01X14167072Y-566420D01*
G01X14178502Y-572262D01*
G01X14195520Y-572262D01*
G01X14206950Y-566420D01*
G01X14224222Y-549402D01*
G01X14224222Y-492252D02*
G01X14224222Y-572262D01*
G01X14271974Y-492252D02*
G01X14271974Y-572262D01*
G01X14271974Y-515112D02*
G01X14289246Y-497840D01*
G01X14300676Y-492252D01*
G01X14317694Y-492252D01*
G01X14329124Y-497840D01*
G01X14334966Y-515112D01*
G01X14334966Y-572262D01*
G01X14451298Y-452120D02*
G01X14451298Y-572262D01*
G01X14451298Y-509270D02*
G01X14439868Y-497840D01*
G01X14428438Y-492252D01*
G01X14411420Y-492252D01*
G01X14399990Y-497840D01*
G01X14388560Y-509270D01*
G01X14382718Y-526542D01*
G01X14382718Y-537972D01*
G01X14388560Y-554990D01*
G01X14399990Y-566420D01*
G01X14411420Y-572262D01*
G01X14428438Y-572262D01*
G01X14439868Y-566420D01*
G01X14451298Y-554990D01*
G01X15342475Y-452120D02*
G01X15342475Y-572262D01*
G01X15342475Y-452120D02*
G01X15394037Y-452120D01*
G01X15411055Y-457962D01*
G01X15416897Y-463550D01*
G01X15422485Y-474980D01*
G01X15422485Y-492252D01*
G01X15416897Y-503682D01*
G01X15411055Y-509270D01*
G01X15394037Y-515112D01*
G01X15342475Y-515112D01*
G01X15538817Y-492252D02*
G01X15538817Y-572262D01*
G01X15538817Y-509270D02*
G01X15527387Y-497840D01*
G01X15515957Y-492252D01*
G01X15498939Y-492252D01*
G01X15487509Y-497840D01*
G01X15476079Y-509270D01*
G01X15470237Y-526542D01*
G01X15470237Y-537972D01*
G01X15476079Y-554990D01*
G01X15487509Y-566420D01*
G01X15498939Y-572262D01*
G01X15515957Y-572262D01*
G01X15527387Y-566420D01*
G01X15538817Y-554990D01*
G01X15655149Y-452120D02*
G01X15655149Y-572262D01*
G01X15655149Y-509270D02*
G01X15643719Y-497840D01*
G01X15632289Y-492252D01*
G01X15615271Y-492252D01*
G01X15603841Y-497840D01*
G01X15592411Y-509270D01*
G01X15586569Y-526542D01*
G01X15586569Y-537972D01*
G01X15592411Y-554990D01*
G01X15603841Y-566420D01*
G01X15615271Y-572262D01*
G01X15632289Y-572262D01*
G01X15643719Y-566420D01*
G01X15655149Y-554990D01*
G01X17051786Y-429260D02*
G01X17040356Y-440690D01*
G01X17028926Y-457962D01*
G01X17017496Y-480822D01*
G01X17011654Y-509270D01*
G01X17011654Y-532130D01*
G01X17017496Y-560832D01*
G01X17028926Y-583692D01*
G01X17040356Y-600710D01*
G01X17051786Y-612140D01*
G01X17099538Y-452120D02*
G01X17099538Y-572262D01*
G01X17099538Y-452120D02*
G01X17145258Y-572262D01*
G01X17190978Y-452120D02*
G01X17145258Y-572262D01*
G01X17190978Y-452120D02*
G01X17190978Y-572262D01*
G01X17238730Y-452120D02*
G01X17244572Y-457962D01*
G01X17250160Y-452120D01*
G01X17244572Y-446532D01*
G01X17238730Y-452120D01*
G01X17244572Y-492252D02*
G01X17244572Y-572262D01*
G01X17297912Y-492252D02*
G01X17360904Y-572262D01*
G01X17360904Y-492252D02*
G01X17297912Y-572262D01*
G01X17408656Y-526542D02*
G01X17477236Y-526542D01*
G01X17477236Y-515112D01*
G01X17471648Y-503682D01*
G01X17465806Y-497840D01*
G01X17454376Y-492252D01*
G01X17437358Y-492252D01*
G01X17425928Y-497840D01*
G01X17414498Y-509270D01*
G01X17408656Y-526542D01*
G01X17408656Y-537972D01*
G01X17414498Y-554990D01*
G01X17425928Y-566420D01*
G01X17437358Y-572262D01*
G01X17454376Y-572262D01*
G01X17465806Y-566420D01*
G01X17477236Y-554990D01*
G01X17593568Y-452120D02*
G01X17593568Y-572262D01*
G01X17593568Y-509270D02*
G01X17582138Y-497840D01*
G01X17570708Y-492252D01*
G01X17553690Y-492252D01*
G01X17542260Y-497840D01*
G01X17530830Y-509270D01*
G01X17524988Y-526542D01*
G01X17524988Y-537972D01*
G01X17530830Y-554990D01*
G01X17542260Y-566420D01*
G01X17553690Y-572262D01*
G01X17570708Y-572262D01*
G01X17582138Y-566420D01*
G01X17593568Y-554990D01*
G01X17641320Y-429260D02*
G01X17652750Y-440690D01*
G01X17664180Y-457962D01*
G01X17675610Y-480822D01*
G01X17681452Y-509270D01*
G01X17681452Y-532130D01*
G01X17675610Y-560832D01*
G01X17664180Y-583692D01*
G01X17652750Y-600710D01*
G01X17641320Y-612140D01*
G01X18971155Y-452120D02*
G01X18971155Y-572262D01*
G01X18931023Y-452120D02*
G01X19011033Y-452120D01*
G01X19087487Y-492252D02*
G01X19076057Y-497840D01*
G01X19064627Y-509270D01*
G01X19058785Y-526542D01*
G01X19058785Y-537972D01*
G01X19064627Y-554990D01*
G01X19076057Y-566420D01*
G01X19087487Y-572262D01*
G01X19104505Y-572262D01*
G01X19115935Y-566420D01*
G01X19127365Y-554990D01*
G01X19133207Y-537972D01*
G01X19133207Y-526542D01*
G01X19127365Y-509270D01*
G01X19115935Y-497840D01*
G01X19104505Y-492252D01*
G01X19087487Y-492252D01*
G01X19180959Y-492252D02*
G01X19180959Y-612140D01*
G01X19180959Y-509270D02*
G01X19192389Y-497840D01*
G01X19203819Y-492252D01*
G01X19221091Y-492252D01*
G01X19232521Y-497840D01*
G01X19243951Y-509270D01*
G01X19249539Y-526542D01*
G01X19249539Y-537972D01*
G01X19243951Y-554990D01*
G01X19232521Y-566420D01*
G01X19221091Y-572262D01*
G01X19203819Y-572262D01*
G01X19192389Y-566420D01*
G01X19180959Y-554990D01*
G01X19425307Y-452120D02*
G01X19425307Y-572262D01*
G01X19425307Y-572262D02*
G01X19493887Y-572262D01*
G01X19610219Y-492252D02*
G01X19610219Y-572262D01*
G01X19610219Y-509270D02*
G01X19598789Y-497840D01*
G01X19587359Y-492252D01*
G01X19570341Y-492252D01*
G01X19558911Y-497840D01*
G01X19547481Y-509270D01*
G01X19541639Y-526542D01*
G01X19541639Y-537972D01*
G01X19547481Y-554990D01*
G01X19558911Y-566420D01*
G01X19570341Y-572262D01*
G01X19587359Y-572262D01*
G01X19598789Y-566420D01*
G01X19610219Y-554990D01*
G01X19663813Y-492252D02*
G01X19698103Y-572262D01*
G01X19732393Y-492252D02*
G01X19698103Y-572262D01*
G01X19686673Y-595122D01*
G01X19675243Y-606552D01*
G01X19663813Y-612140D01*
G01X19657971Y-612140D01*
G01X19780145Y-526542D02*
G01X19848725Y-526542D01*
G01X19848725Y-515112D01*
G01X19843137Y-503682D01*
G01X19837295Y-497840D01*
G01X19825865Y-492252D01*
G01X19808847Y-492252D01*
G01X19797417Y-497840D01*
G01X19785987Y-509270D01*
G01X19780145Y-526542D01*
G01X19780145Y-537972D01*
G01X19785987Y-554990D01*
G01X19797417Y-566420D01*
G01X19808847Y-572262D01*
G01X19825865Y-572262D01*
G01X19837295Y-566420D01*
G01X19848725Y-554990D01*
G01X19896477Y-492252D02*
G01X19896477Y-572262D01*
G01X19896477Y-526542D02*
G01X19902319Y-509270D01*
G01X19913749Y-497840D01*
G01X19925179Y-492252D01*
G01X19942197Y-492252D01*
G01X19989949Y-520700D02*
G01X20092819Y-520700D01*
G01X20140571Y-452120D02*
G01X20140571Y-572262D01*
G01X20140571Y-452120D02*
G01X20192133Y-452120D01*
G01X20209151Y-457962D01*
G01X20214993Y-463550D01*
G01X20220581Y-474980D01*
G01X20220581Y-486410D01*
G01X20214993Y-497840D01*
G01X20209151Y-503682D01*
G01X20192133Y-509270D01*
G01X20140571Y-509270D02*
G01X20192133Y-509270D01*
G01X20209151Y-515112D01*
G01X20214993Y-520700D01*
G01X20220581Y-532130D01*
G01X20220581Y-549402D01*
G01X20214993Y-560832D01*
G01X20209151Y-566420D01*
G01X20192133Y-572262D01*
G01X20140571Y-572262D01*
G01X20297035Y-492252D02*
G01X20285605Y-497840D01*
G01X20274175Y-509270D01*
G01X20268333Y-526542D01*
G01X20268333Y-537972D01*
G01X20274175Y-554990D01*
G01X20285605Y-566420D01*
G01X20297035Y-572262D01*
G01X20314053Y-572262D01*
G01X20325483Y-566420D01*
G01X20336913Y-554990D01*
G01X20342755Y-537972D01*
G01X20342755Y-526542D01*
G01X20336913Y-509270D01*
G01X20325483Y-497840D01*
G01X20314053Y-492252D01*
G01X20297035Y-492252D01*
G01X20407779Y-452120D02*
G01X20407779Y-549402D01*
G01X20413367Y-566420D01*
G01X20424797Y-572262D01*
G01X20436227Y-572262D01*
G01X20390507Y-492252D02*
G01X20430639Y-492252D01*
G01X20501251Y-452120D02*
G01X20501251Y-549402D01*
G01X20506839Y-566420D01*
G01X20518269Y-572262D01*
G01X20529699Y-572262D01*
G01X20483979Y-492252D02*
G01X20524111Y-492252D01*
G01X20606153Y-492252D02*
G01X20594723Y-497840D01*
G01X20583293Y-509270D01*
G01X20577451Y-526542D01*
G01X20577451Y-537972D01*
G01X20583293Y-554990D01*
G01X20594723Y-566420D01*
G01X20606153Y-572262D01*
G01X20623171Y-572262D01*
G01X20634601Y-566420D01*
G01X20646031Y-554990D01*
G01X20651873Y-537972D01*
G01X20651873Y-526542D01*
G01X20646031Y-509270D01*
G01X20634601Y-497840D01*
G01X20623171Y-492252D01*
G01X20606153Y-492252D01*
G01X20699625Y-492252D02*
G01X20699625Y-572262D01*
G01X20699625Y-515112D02*
G01X20716897Y-497840D01*
G01X20728327Y-492252D01*
G01X20745345Y-492252D01*
G01X20756775Y-497840D01*
G01X20762617Y-515112D01*
G01X20762617Y-572262D01*
G01X20762617Y-515112D02*
G01X20779635Y-497840D01*
G01X20791065Y-492252D01*
G01X20808337Y-492252D01*
G01X20819767Y-497840D01*
G01X20825355Y-515112D01*
G01X20825355Y-572262D01*
G01X21001123Y-452120D02*
G01X21001123Y-572262D01*
G01X21001123Y-572262D02*
G01X21069703Y-572262D01*
G01X21186035Y-492252D02*
G01X21186035Y-572262D01*
G01X21186035Y-509270D02*
G01X21174605Y-497840D01*
G01X21163175Y-492252D01*
G01X21146157Y-492252D01*
G01X21134727Y-497840D01*
G01X21123297Y-509270D01*
G01X21117455Y-526542D01*
G01X21117455Y-537972D01*
G01X21123297Y-554990D01*
G01X21134727Y-566420D01*
G01X21146157Y-572262D01*
G01X21163175Y-572262D01*
G01X21174605Y-566420D01*
G01X21186035Y-554990D01*
G01X21239629Y-492252D02*
G01X21273919Y-572262D01*
G01X21308209Y-492252D02*
G01X21273919Y-572262D01*
G01X21262489Y-595122D01*
G01X21251059Y-606552D01*
G01X21239629Y-612140D01*
G01X21233787Y-612140D01*
G01X21355961Y-526542D02*
G01X21424541Y-526542D01*
G01X21424541Y-515112D01*
G01X21418953Y-503682D01*
G01X21413111Y-497840D01*
G01X21401681Y-492252D01*
G01X21384663Y-492252D01*
G01X21373233Y-497840D01*
G01X21361803Y-509270D01*
G01X21355961Y-526542D01*
G01X21355961Y-537972D01*
G01X21361803Y-554990D01*
G01X21373233Y-566420D01*
G01X21384663Y-572262D01*
G01X21401681Y-572262D01*
G01X21413111Y-566420D01*
G01X21424541Y-554990D01*
G01X21472293Y-492252D02*
G01X21472293Y-572262D01*
G01X21472293Y-526542D02*
G01X21478135Y-509270D01*
G01X21489565Y-497840D01*
G01X21500995Y-492252D01*
G01X21518013Y-492252D01*

G04 Image Start*
G36*
G01X5950769Y-98999D02*
G01X5943029Y-99587D01*
G01X5935186Y-99786D01*
G01X5927343Y-99587D01*
G01X5919602Y-98999D01*
G01X5911975Y-98030D01*
G01X5904470Y-96690D01*
G01X5889864Y-92935D01*
G01X5875862Y-87810D01*
G01X5862540Y-81393D01*
G01X5849974Y-73760D01*
G01X5838242Y-64987D01*
G01X5827420Y-55152D01*
G01X5817584Y-44329D01*
G01X5808811Y-32597D01*
G01X5801178Y-20032D01*
G01X5794761Y-6710D01*
G01X5789637Y7292D01*
G01X5785882Y21898D01*
G01X5784542Y29404D01*
G01X5783572Y37031D01*
G01X5782984Y44771D01*
G01X5782786Y52614D01*
G01X5808186Y52614D01*
G01X5808843Y39648D01*
G01X5810770Y27052D01*
G01X5813905Y14890D01*
G01X5818182Y3228D01*
G01X5823537Y-7872D01*
G01X5829905Y-18343D01*
G01X5837223Y-28123D01*
G01X5845425Y-37146D01*
G01X5854449Y-45349D01*
G01X5864228Y-52666D01*
G01X5874700Y-59035D01*
G01X5885799Y-64390D01*
G01X5897462Y-68666D01*
G01X5909623Y-71801D01*
G01X5909623Y-71801D01*
G01X5922219Y-73729D01*
G01X5935186Y-74386D01*
G01X5948152Y-73729D01*
G01X5960748Y-71801D01*
G01X5972910Y-68666D01*
G01X5984572Y-64390D01*
G01X5995672Y-59035D01*
G01X6006143Y-52666D01*
G01X6015923Y-45349D01*
G01X6024946Y-37146D01*
G01X6033149Y-28123D01*
G01X6040466Y-18343D01*
G01X6046835Y-7872D01*
G01X6052190Y3228D01*
G01X6056466Y14890D01*
G01X6059601Y27052D01*
G01X6061529Y39648D01*
G01X6062186Y52614D01*
G01X6061529Y65581D01*
G01X6059601Y78177D01*
G01X6056466Y90338D01*
G01X6052190Y102001D01*
G01X6046835Y113100D01*
G01X6040466Y123572D01*
G01X6033149Y133351D01*
G01X6024946Y142375D01*
G01X6015923Y150577D01*
G01X6006143Y157895D01*
G01X5995672Y164263D01*
G01X5984572Y169618D01*
G01X5972910Y173895D01*
G01X5960748Y177029D01*
G01X5948152Y178957D01*
G01X5935186Y179614D01*
G01X5922219Y178957D01*
G01X5909623Y177029D01*
G01X5897462Y173895D01*
G01X5885799Y169618D01*
G01X5874700Y164263D01*
G01X5864228Y157895D01*
G01X5854449Y150577D01*
G01X5845425Y142375D01*
G01X5837223Y133351D01*
G01X5829905Y123572D01*
G01X5823537Y113100D01*
G01X5818182Y102001D01*
G01X5813905Y90338D01*
G01X5810770Y78177D01*
G01X5808843Y65581D01*
G01X5808186Y52614D01*
G01X5782786Y52614D01*
G01X5782984Y60457D01*
G01X5783572Y68198D01*
G01X5784542Y75825D01*
G01X5785882Y83330D01*
G01X5789637Y97936D01*
G01X5794761Y111938D01*
G01X5801178Y125260D01*
G01X5808811Y137826D01*
G01X5817584Y149558D01*
G01X5827420Y160380D01*
G01X5838242Y170216D01*
G01X5849974Y178989D01*
G01X5862540Y186622D01*
G01X5875862Y193039D01*
G01X5889864Y198163D01*
G01X5904470Y201918D01*
G01X5911975Y203258D01*
G01X5919602Y204228D01*
G01X5927343Y204816D01*
G01X5935186Y205014D01*
G01X5943029Y204816D01*
G01X5950769Y204228D01*
G01X5958396Y203258D01*
G01X5965902Y201918D01*
G01X5980508Y198163D01*
G01X5994510Y193039D01*
G01X6007832Y186622D01*
G01X6020397Y178989D01*
G01X6032129Y170216D01*
G01X6042952Y160380D01*
G01X6052787Y149558D01*
G01X6061560Y137826D01*
G01X6069193Y125260D01*
G01X6075610Y111938D01*
G01X6080735Y97936D01*
G01X6084490Y83330D01*
G01X6085830Y75825D01*
G01X6086799Y68198D01*
G01X6087387Y60457D01*
G01X6087586Y52614D01*
G01X6087387Y44771D01*
G01X6086799Y37031D01*
G01X6085830Y29404D01*
G01X6084490Y21898D01*
G01X6080735Y7292D01*
G01X6075610Y-6710D01*
G01X6069193Y-20032D01*
G01X6061560Y-32597D01*
G01X6052787Y-44329D01*
G01X6042952Y-55152D01*
G01X6032129Y-64987D01*
G01X6020397Y-73760D01*
G01X6007832Y-81393D01*
G01X5994510Y-87810D01*
G01X5980508Y-92935D01*
G01X5965902Y-96690D01*
G01X5958396Y-98030D01*
G01X5950769Y-98999D01*
G37*
G36*
G01X5782786Y-375557D02*
G01X6087586Y-375557D01*
G01X5935186Y-639514D01*
G01X5797451Y-400957D01*
G01X5826779Y-400957D01*
G01X5935186Y-588714D01*
G01X6043593Y-400957D01*
G01X6043593Y-400957D01*
G01X5826779Y-400957D01*
G01X5797451Y-400957D01*
G01X5782786Y-375557D01*
G37*
G36*
G01X5782786Y785586D02*
G01X6062186Y785586D01*
G01X6062186Y506186D01*
G01X5782786Y506186D01*
G01X5782786Y760186D01*
G01X5808186Y760186D01*
G01X5808186Y531586D01*
G01X6036786Y531586D01*
G01X6036786Y760186D01*
G01X6036786Y760186D01*
G01X5808186Y760186D01*
G01X5782786Y760186D01*
G01X5782786Y785586D01*
G37*

G04 PolygonModel Start*
G54D14*
G01X5492500Y-810986D02*
G01X22108745Y-810986D01*
G01X5492500Y-230414D02*
G01X22108745Y-230414D01*
G01X5492500Y350157D02*
G01X22108745Y350157D01*
G01X5492500Y930729D02*
G01X22108745Y930729D01*
G01X5492500Y1511300D02*
G01X22108745Y1511300D01*
G01X5492500Y1511300D02*
G01X5492500Y-785586D01*
G01X6943929Y1511300D02*
G01X6943929Y-785586D01*
G01X8358092Y1511300D02*
G01X8358092Y-785586D01*
G01X12149441Y1511300D02*
G01X12149441Y-785586D01*
G01X13610848Y1511300D02*
G01X13610848Y-785586D01*
G01X15042029Y1511300D02*
G01X15042029Y-785586D01*
G01X16711208Y1511300D02*
G01X16711208Y-785586D01*
G01X18630577Y1511300D02*
G01X18630577Y-785586D01*
G01X22108745Y1511300D02*
G01X22108745Y-785586D01*

M02*

